  0
SECTION
  2
HEADER
  9
$ACADVER
  1
AC1009
  9
$DWGCODEPAGE
  3
ansi_1252
  9
$INSBASE
 10
0.0
 20
0.0
 30
0.0
  9
$EXTMIN
 10
-74.03540000000002
 20
-21.05830000000033
 30
0.0
  9
$EXTMAX
 10
74.03540000000002
 20
22.0376
 30
0.0
  9
$LIMMIN
 10
0.0
 20
0.0
  9
$LIMMAX
 10
12.0
 20
9.0
  9
$ORTHOMODE
 70
     0
  9
$REGENMODE
 70
     1
  9
$FILLMODE
 70
     1
  9
$QTEXTMODE
 70
     0
  9
$MIRRTEXT
 70
     1
  9
$DRAGMODE
 70
     2
  9
$LTSCALE
 40
1.0
  9
$OSMODE
 70
    37
  9
$ATTMODE
 70
     1
  9
$TEXTSIZE
 40
0.2
  9
$TRACEWID
 40
0.05
  9
$TEXTSTYLE
  7
STANDARD
  9
$CLAYER
  8
0
  9
$CELTYPE
  6
BYLAYER
  9
$CECOLOR
 62
   256
  9
$DIMSCALE
 40
1.0
  9
$DIMASZ
 40
0.18
  9
$DIMEXO
 40
0.0625
  9
$DIMDLI
 40
0.38
  9
$DIMRND
 40
0.0
  9
$DIMDLE
 40
0.0
  9
$DIMEXE
 40
0.18
  9
$DIMTP
 40
0.0
  9
$DIMTM
 40
0.0
  9
$DIMTXT
 40
0.18
  9
$DIMCEN
 40
0.09
  9
$DIMTSZ
 40
0.0
  9
$DIMTOL
 70
     0
  9
$DIMLIM
 70
     0
  9
$DIMTIH
 70
     1
  9
$DIMTOH
 70
     1
  9
$DIMSE1
 70
     0
  9
$DIMSE2
 70
     0
  9
$DIMTAD
 70
     0
  9
$DIMZIN
 70
     0
  9
$DIMBLK
  1

  9
$DIMASO
 70
     1
  9
$DIMSHO
 70
     1
  9
$DIMPOST
  1

  9
$DIMAPOST
  1

  9
$DIMALT
 70
     0
  9
$DIMALTD
 70
     2
  9
$DIMALTF
 40
25.4
  9
$DIMLFAC
 40
1.0
  9
$DIMTOFL
 70
     0
  9
$DIMTVP
 40
0.0
  9
$DIMTIX
 70
     0
  9
$DIMSOXD
 70
     0
  9
$DIMSAH
 70
     0
  9
$DIMBLK1
  1

  9
$DIMBLK2
  1

  9
$DIMSTYLE
  2
STANDARD
  9
$DIMCLRD
 70
     0
  9
$DIMCLRE
 70
     0
  9
$DIMCLRT
 70
     0
  9
$DIMTFAC
 40
1.0
  9
$DIMGAP
 40
0.09
  9
$LUNITS
 70
     2
  9
$LUPREC
 70
     4
  9
$SKETCHINC
 40
0.1
  9
$FILLETRAD
 40
0.5
  9
$AUNITS
 70
     0
  9
$AUPREC
 70
     0
  9
$MENU
  1
.
  9
$ELEVATION
 40
0.0
  9
$PELEVATION
 40
0.0
  9
$THICKNESS
 40
0.0
  9
$LIMCHECK
 70
     0
  9
$CHAMFERA
 40
0.0
  9
$CHAMFERB
 40
0.0
  9
$SKPOLY
 70
     0
  9
$TDCREATE
 40
2458084.552169734
  9
$TDUPDATE
 40
2458084.552196505
  9
$TDINDWG
 40
0.0000000116
  9
$TDUSRTIMER
 40
0.0000000116
  9
$USRTIMER
 70
     1
  9
$ANGBASE
 50
0.0
  9
$ANGDIR
 70
     0
  9
$PDMODE
 70
     0
  9
$PDSIZE
 40
0.0
  9
$PLINEWID
 40
0.0
  9
$COORDS
 70
     1
  9
$SPLFRAME
 70
     0
  9
$SPLINETYPE
 70
     6
  9
$SPLINESEGS
 70
     8
  9
$ATTDIA
 70
     0
  9
$ATTREQ
 70
     1
  9
$HANDLING
 70
     1
  9
$HANDSEED
  5
200
  9
$SURFTAB1
 70
     6
  9
$SURFTAB2
 70
     6
  9
$SURFTYPE
 70
     6
  9
$SURFU
 70
     6
  9
$SURFV
 70
     6
  9
$UCSNAME
  2

  9
$UCSORG
 10
0.0
 20
0.0
 30
0.0
  9
$UCSXDIR
 10
1.0
 20
0.0
 30
0.0
  9
$UCSYDIR
 10
0.0
 20
1.0
 30
0.0
  9
$PUCSNAME
  2

  9
$PUCSORG
 10
0.0
 20
0.0
 30
0.0
  9
$PUCSXDIR
 10
1.0
 20
0.0
 30
0.0
  9
$PUCSYDIR
 10
0.0
 20
1.0
 30
0.0
  9
$USERI1
 70
     0
  9
$USERI2
 70
     0
  9
$USERI3
 70
     0
  9
$USERI4
 70
     0
  9
$USERI5
 70
     0
  9
$USERR1
 40
0.0
  9
$USERR2
 40
0.0
  9
$USERR3
 40
0.0
  9
$USERR4
 40
0.0
  9
$USERR5
 40
0.0
  9
$WORLDVIEW
 70
     1
  9
$SHADEDGE
 70
     3
  9
$SHADEDIF
 70
    70
  9
$TILEMODE
 70
     1
  9
$MAXACTVP
 70
    64
  9
$PLIMCHECK
 70
     0
  9
$PEXTMIN
 10
1.000000000000000E+20
 20
1.000000000000000E+20
 30
1.000000000000000E+20
  9
$PEXTMAX
 10
-1.000000000000000E+20
 20
-1.000000000000000E+20
 30
-1.000000000000000E+20
  9
$PLIMMIN
 10
0.0
 20
0.0
  9
$PLIMMAX
 10
12.0
 20
9.0
  9
$UNITMODE
 70
     0
  9
$VISRETAIN
 70
     1
  9
$PLINEGEN
 70
     0
  9
$PSLTSCALE
 70
     1
  0
ENDSEC
  0
SECTION
  2
TABLES
  0
TABLE
  2
VPORT
 70
     1
  0
VPORT
  2
*ACTIVE
 70
     0
 10
0.0
 20
0.0
 11
1.0
 21
1.0
 12
0.0
 22
0.4896499999998341
 13
0.0
 23
0.0
 14
0.5
 24
0.5
 15
0.5
 25
0.5
 16
0.0
 26
0.0
 36
1.0
 17
0.0
 27
0.0
 37
0.0
 40
43.95781800000034
 41
3.435844245044167
 42
50.0
 43
0.0
 44
0.0
 50
0.0
 51
0.0
 71
     0
 72
   100
 73
     1
 74
     3
 75
     0
 76
     0
 77
     0
 78
     0
  0
ENDTAB
  0
TABLE
  2
LTYPE
 70
     1
  0
LTYPE
  2
CONTINUOUS
 70
     0
  3
Solid line
 72
    65
 73
     0
 40
0.0
  0
ENDTAB
  0
TABLE
  2
LAYER
 70
     2
  0
LAYER
  2
0
 70
     0
 62
     7
  6
CONTINUOUS
  0
LAYER
  2
BLUE2
 70
     0
 62
     5
  6
CONTINUOUS
  0
ENDTAB
  0
TABLE
  2
STYLE
 70
     1
  0
STYLE
  2
STANDARD
 70
     0
 40
0.0
 41
1.0
 50
0.0
 71
     0
 42
0.2
  3
txt
  4

  0
ENDTAB
  0
TABLE
  2
VIEW
 70
     0
  0
ENDTAB
  0
TABLE
  2
UCS
 70
     0
  0
ENDTAB
  0
TABLE
  2
APPID
 70
     1
  0
APPID
  2
ACAD
 70
     0
  0
ENDTAB
  0
TABLE
  2
DIMSTYLE
 70
     1
  0
DIMSTYLE
  2
STANDARD
 70
     0
  3

  4

  5

  6

  7

 40
1.0
 41
0.18
 42
0.0625
 43
0.38
 44
0.18
 45
0.0
 46
0.0
 47
0.0
 48
0.0
140
0.18
141
0.09
142
0.0
143
25.4
144
1.0
145
0.0
146
1.0
147
0.09
 71
     0
 72
     0
 73
     1
 74
     1
 75
     0
 76
     0
 77
     0
 78
     0
170
     0
171
     2
172
     0
173
     0
174
     0
175
     0
176
     0
177
     0
178
     0
  0
ENDTAB
  0
ENDSEC
  0
SECTION
  2
BLOCKS
  0
BLOCK
  8
0
  2
$MODEL_SPACE
 70
     0
 10
0.0
 20
0.0
 30
0.0
  3
$MODEL_SPACE
  1

  0
ENDBLK
  5
21
  8
0
  0
BLOCK
 67
     1
  8
0
  2
$PAPER_SPACE
 70
     0
 10
0.0
 20
0.0
 30
0.0
  3
$PAPER_SPACE
  1

  0
ENDBLK
  5
1D
 67
     1
  8
0
  0
ENDSEC
  0
SECTION
  2
ENTITIES
  0
LINE
  5
6F
  8
BLUE2
 10
-16.55943301325565
 20
-15.17888965095906
 30
0.0
 11
-16.45730535368135
 21
-14.97888965095932
 31
0.0
  0
ARC
  5
70
  8
BLUE2
 10
-17.43697114507994
 20
-14.47863477875578
 30
0.0
 40
1.1
 50
332.9494029929136
 51
90.00000000000036
  0
LINE
  5
71
  8
BLUE2
 10
-17.43697114507995
 20
-13.37863477875578
 30
0.0
 11
-61.69795921679259
 21
-13.3786347787558
 31
0.0
  0
ARC
  5
72
  8
BLUE2
 10
-61.69795921679287
 20
-14.47863477875568
 30
0.0
 40
1.1
 50
89.9999999999852
 51
209.0546040990771
  0
LINE
  5
73
  8
BLUE2
 10
-62.65953222052656
 20
-15.01284200305217
 30
0.0
 11
-62.54842110941556
 21
-15.21284200305221
 31
0.0
  0
ARC
  5
74
  8
BLUE2
 10
-61.58684810568182
 20
-14.6786347787558
 30
0.0
 40
1.1
 50
209.0546040990721
 51
269.9999999999997
  0
LINE
  5
75
  8
BLUE2
 10
-61.58684810568182
 20
-15.7786347787558
 30
0.0
 11
-17.53909880465438
 21
-15.7786347787558
 31
0.0
  0
ARC
  5
76
  8
BLUE2
 10
-17.53909880465438
 20
-14.6786347787558
 30
0.0
 40
1.1
 50
270.0000000000002
 51
332.9494029929299
  0
LINE
  5
77
  8
BLUE2
 10
62.54842110941556
 20
-15.21284200305221
 30
0.0
 11
62.65953222052657
 21
-15.01284200305217
 31
0.0
  0
ARC
  5
78
  8
BLUE2
 10
61.69795921679288
 20
-14.47863477875567
 30
0.0
 40
1.1
 50
330.9453959009227
 51
90.00000000000334
  0
LINE
  5
79
  8
BLUE2
 10
61.69795921679281
 20
-13.3786347787558
 30
0.0
 11
17.43697114507995
 21
-13.37863477875578
 31
0.0
  0
ARC
  5
7A
  8
BLUE2
 10
17.43697114507994
 20
-14.47863477875578
 30
0.0
 40
1.1
 50
89.99999999999963
 51
207.0505970070863
  0
LINE
  5
7B
  8
BLUE2
 10
16.45730535368135
 20
-14.97888965095932
 30
0.0
 11
16.55943301325561
 21
-15.17888965095908
 31
0.0
  0
ARC
  5
7C
  8
BLUE2
 10
17.53909880465433
 20
-14.6786347787558
 30
0.0
 40
1.1
 50
207.0505970070713
 51
270.0000000000002
  0
LINE
  5
7D
  8
BLUE2
 10
17.53909880465433
 20
-15.7786347787558
 30
0.0
 11
61.5868481056818
 21
-15.7786347787558
 31
0.0
  0
ARC
  5
7E
  8
BLUE2
 10
61.58684810568182
 20
-14.67863477875579
 30
0.0
 40
1.10000000000001
 50
269.9999999999993
 51
330.9453959009272
  0
LINE
  5
7F
  8
BLUE2
 10
-58.40000000000024
 20
10.5368942035407
 30
0.0
 11
-6.412087950736586
 21
10.5368942035407
 31
0.0
  0
ARC
  5
80
  8
BLUE2
 10
-6.412087950736584
 20
11.6368942035407
 30
0.0
 40
1.1
 50
269.9999999999999
 51
350.9097230791698
  0
LINE
  5
81
  8
BLUE2
 10
-5.325903255628232
 20
11.46310465232321
 30
0.0
 11
-5.293903255628226
 21
11.66310465232359
 31
0.0
  0
ARC
  5
82
  8
BLUE2
 10
-6.380087950736603
 20
11.83689420354093
 30
0.0
 40
1.1
 50
350.9097230791776
 51
90.0000000000037
  0
LINE
  5
83
  8
BLUE2
 10
-6.380087950736674
 20
12.93689420354093
 30
0.0
 11
-58.40000000000022
 21
12.9368942035407
 31
0.0
  0
ARC
  5
84
  8
BLUE2
 10
-58.40000000000022
 20
11.8368942035407
 30
0.0
 40
1.1
 50
90.0
 51
179.9999999999805
  0
LINE
  5
85
  8
BLUE2
 10
-59.50000000000022
 20
11.83689420354107
 30
0.0
 11
-59.5
 21
11.63689420354032
 31
0.0
  0
ARC
  5
86
  8
BLUE2
 10
-58.40000000000025
 20
11.6368942035407
 30
0.0
 40
1.099999999999994
 50
180.0000000000197
 51
270.0000000000003
  0
LINE
  5
87
  8
BLUE2
 10
-11.18434624240363
 20
-4.652678058040444
 30
0.0
 11
-11.0822185828293
 21
-4.452678058040715
 31
0.0
  0
ARC
  5
88
  8
BLUE2
 10
-12.06188437422789
 20
-3.95242318583718
 30
0.0
 40
1.1
 50
332.9494029929139
 51
90.00000000000055
  0
LINE
  5
89
  8
BLUE2
 10
-12.0618843742279
 20
-2.85242318583718
 30
0.0
 11
-63.55555555555555
 21
-2.852423185837196
 31
0.0
  0
ARC
  5
8A
  8
BLUE2
 10
-63.66743589743591
 20
-4.187093967730187
 30
0.0
 40
1.339351823434796
 50
85.20831664909659
 51
174.229202094013
  0
ARC
  5
8B
  8
BLUE2
 10
-63.66743589743591
 20
-3.917752403944207
 30
0.0
 40
1.339351823434797
 50
185.770797905987
 51
274.7916833509034
  0
LINE
  5
8C
  8
BLUE2
 10
-63.55555555555555
 20
-5.252423185837198
 30
0.0
 11
-12.1640120338023
 21
-5.252423185837202
 31
0.0
  0
ARC
  5
8D
  8
BLUE2
 10
-12.1640120338023
 20
-4.152423185837315
 30
0.0
 40
1.099999999999887
 50
270.0
 51
332.9494029929346
  0
ARC
  5
8E
  8
BLUE2
 10
63.66743589743592
 20
6.608459188974376
 30
0.0
 40
1.339351823434778
 50
265.2083166490962
 51
354.2292020940135
  0
ARC
  5
8F
  8
BLUE2
 10
63.66743589743591
 20
6.339117625188411
 30
0.0
 40
1.339351823434798
 50
5.770797905986971
 51
94.79168335090341
  0
LINE
  5
90
  8
BLUE2
 10
63.55555555555555
 20
7.673788407081403
 30
0.0
 11
7.222184878170162
 21
7.673788407081403
 31
0.0
  0
ARC
  5
91
  8
BLUE2
 10
7.222184878170088
 20
6.573788407081629
 30
0.0
 40
1.1
 50
89.9999999999952
 51
189.0902769208223
  0
LINE
  5
92
  8
BLUE2
 10
6.136000183061713
 20
6.39999885586429
 30
0.0
 11
6.168000183061718
 21
6.199998855863906
 31
0.0
  0
ARC
  5
93
  8
BLUE2
 10
7.25418487817007
 20
6.373788407081395
 30
0.0
 40
1.1
 50
189.0902769208301
 51
270.0000000000002
  0
LINE
  5
94
  8
BLUE2
 10
7.254184878170074
 20
5.273788407081395
 30
0.0
 11
63.55555555555556
 21
5.273788407081404
 31
0.0
  0
LINE
  5
95
  8
BLUE2
 10
8.394675197403274
 20
0.8104277384185905
 30
0.0
 11
8.496802856977604
 21
0.6104277384188597
 31
0.0
  0
ARC
  5
96
  8
BLUE2
 10
9.476468648376256
 20
1.110682610622098
 30
0.0
 40
1.1
 50
207.0505970070708
 51
270.0000000000003
  0
LINE
  5
97
  8
BLUE2
 10
9.476468648376262
 20
0.0106826106220976
 30
0.0
 11
63.55555555555554
 21
0.010682610622089
 31
0.0
  0
ARC
  5
98
  8
BLUE2
 10
63.66743589743589
 20
1.345353392515095
 30
0.0
 40
1.33935182343481
 50
265.2083166490973
 51
354.2292020940127
  0
ARC
  5
99
  8
BLUE2
 10
63.66743589743589
 20
1.076011828729097
 30
0.0
 40
1.339351823434811
 50
5.770797905987555
 51
94.79168335090276
  0
LINE
  5
9A
  8
BLUE2
 10
63.55555555555554
 20
2.410682610622104
 30
0.0
 11
9.374340988801858
 21
2.410682610622125
 31
0.0
  0
ARC
  5
9B
  8
BLUE2
 10
9.374340988801865
 20
1.310682610622124
 30
0.0
 40
1.100000000000001
 50
90.00000000000036
 51
207.050597007086
  0
ARC
  5
9C
  8
BLUE2
 10
-63.66743589743588
 20
6.608459188974416
 30
0.0
 40
1.339351823434825
 50
185.770797905988
 51
274.7916833509017
  0
LINE
  5
9D
  8
BLUE2
 10
-63.55555555555556
 20
5.273788407081393
 30
0.0
 11
-7.254184878170044
 21
5.273788407081398
 31
0.0
  0
ARC
  5
9E
  8
BLUE2
 10
-7.254184878170044
 20
6.373788407081397
 30
0.0
 40
1.1
 50
270.0
 51
350.9097230791693
  0
LINE
  5
9F
  8
BLUE2
 10
-6.168000183061693
 20
6.199998855863897
 30
0.0
 11
-6.136000183061714
 21
6.399998855864287
 31
0.0
  0
ARC
  5
A0
  8
BLUE2
 10
-7.22218487817009
 20
6.57378840708163
 30
0.0
 40
1.1
 50
350.9097230791775
 51
90.00000000000439
  0
LINE
  5
A1
  8
BLUE2
 10
-7.222184878170175
 20
7.673788407081403
 30
0.0
 11
-63.55555555555555
 21
7.673788407081403
 31
0.0
  0
ARC
  5
A2
  8
BLUE2
 10
-63.66743589743589
 20
6.339117625188388
 30
0.0
 40
1.339351823434819
 50
85.20831664909758
 51
174.2292020940122
  0
LINE
  5
A3
  8
BLUE2
 10
62.00000000000024
 20
11.63689420354032
 30
0.0
 11
62.0
 21
11.83689420354108
 31
0.0
  0
ARC
  5
A4
  8
BLUE2
 10
60.9
 20
11.83689420354108
 30
0.0
 40
1.1
 50
0.0
 51
89.99999999998631
  0
LINE
  5
A5
  8
BLUE2
 10
60.90000000000026
 20
12.9368942035407
 30
0.0
 11
6.38008795073668
 21
12.9368942035407
 31
0.0
  0
ARC
  5
A6
  8
BLUE2
 10
6.380087950736687
 20
11.8368942035407
 30
0.0
 40
1.1
 50
90.00000000000036
 51
189.0902769208102
  0
LINE
  5
A7
  8
BLUE2
 10
5.293903255628274
 20
11.66310465232359
 30
0.0
 11
5.32590325562822
 21
11.46310465232321
 31
0.0
  0
ARC
  5
A8
  8
BLUE2
 10
6.412087950736572
 20
11.6368942035407
 30
0.0
 40
1.1
 50
189.0902769208304
 51
269.9999999999997
  0
LINE
  5
A9
  8
BLUE2
 10
6.412087950736566
 20
10.5368942035407
 30
0.0
 11
60.90000000000023
 21
10.5368942035407
 31
0.0
  0
ARC
  5
AA
  8
BLUE2
 10
60.90000000000024
 20
11.6368942035407
 30
0.0
 40
1.100000000000001
 50
269.9999999999997
 51
359.9999999999801
  0
LINE
  5
AB
  8
BLUE2
 10
-8.496802856977604
 20
0.6104277384188579
 30
0.0
 11
-8.394675197403274
 21
0.810427738418588
 31
0.0
  0
ARC
  5
AC
  8
BLUE2
 10
-9.374340988801864
 20
1.310682610622123
 30
0.0
 40
1.1
 50
332.9494029929139
 51
90.0000000000001
  0
LINE
  5
AD
  8
BLUE2
 10
-9.374340988801865
 20
2.410682610622123
 30
0.0
 11
-63.55555555555556
 21
2.410682610622103
 31
0.0
  0
ARC
  5
AE
  8
BLUE2
 10
-63.66743589743592
 20
1.076011828729134
 30
0.0
 40
1.339351823434775
 50
85.20831664909622
 51
174.2292020940139
  0
ARC
  5
AF
  8
BLUE2
 10
-63.66743589743592
 20
1.345353392515078
 30
0.0
 40
1.339351823434777
 50
185.7707979059865
 51
274.7916833509041
  0
LINE
  5
B0
  8
BLUE2
 10
-63.55555555555555
 20
0.0106826106221072
 30
0.0
 11
-9.476468648376258
 21
0.0106826106220979
 31
0.0
  0
ARC
  5
B1
  8
BLUE2
 10
-9.476468648376258
 20
1.110682610621955
 30
0.0
 40
1.099999999999858
 50
270.0
 51
332.9494029929357
  0
LINE
  5
B2
  8
BLUE2
 10
62.00000000000024
 20
16.89999999999962
 30
0.0
 11
62.0
 21
17.10000000000037
 31
0.0
  0
ARC
  5
B3
  8
BLUE2
 10
60.9
 20
17.10000000000037
 30
0.0
 40
1.1
 50
0.0000000000001851
 51
89.99999999998742
  0
LINE
  5
B4
  8
BLUE2
 10
60.90000000000023
 20
18.2
 30
0.0
 11
5.537991023303203
 21
18.20000000000023
 31
0.0
  0
ARC
  5
B5
  8
BLUE2
 10
5.537991023303114
 20
17.10000000000023
 30
0.0
 40
1.1
 50
89.99999999999538
 51
189.0902769208223
  0
LINE
  5
B6
  8
BLUE2
 10
4.451806328194738
 20
16.92621044878289
 30
0.0
 11
4.483806328194719
 21
16.7262104487825
 31
0.0
  0
ARC
  5
B7
  8
BLUE2
 10
5.56999102330307
 20
16.9
 30
0.0
 40
1.1
 50
189.0902769208307
 51
270.0000000000003
  0
LINE
  5
B8
  8
BLUE2
 10
5.569991023303075
 20
15.8
 30
0.0
 11
60.90000000000024
 21
15.8
 31
0.0
  0
ARC
  5
B9
  8
BLUE2
 10
60.90000000000024
 20
16.90000000000001
 30
0.0
 40
1.100000000000007
 50
270.0
 51
359.9999999999799
  0
LINE
  5
BA
  8
BLUE2
 10
-13.87188962782965
 20
-9.915783854499743
 30
0.0
 11
-13.76976196825531
 21
-9.715783854500023
 31
0.0
  0
ARC
  5
BB
  8
BLUE2
 10
-14.7494277596539
 20
-9.215528982296496
 30
0.0
 40
1.1
 50
332.9494029929144
 51
90.0
  0
LINE
  5
BC
  8
BLUE2
 10
-14.7494277596539
 20
-8.115528982296494
 30
0.0
 11
-63.55555555555555
 21
-8.115528982296496
 31
0.0
  0
ARC
  5
BD
  8
BLUE2
 10
-63.66743589743589
 20
-9.450199764189508
 30
0.0
 40
1.339351823434815
 50
85.20831664909757
 51
174.2292020940123
  0
ARC
  5
BE
  8
BLUE2
 10
-63.66743589743591
 20
-9.18085820040351
 30
0.0
 40
1.339351823434794
 50
185.770797905987
 51
274.7916833509034
  0
LINE
  5
BF
  8
BLUE2
 10
-63.55555555555555
 20
-10.5155289822965
 30
0.0
 11
-14.85155541922834
 21
-10.5155289822965
 31
0.0
  0
ARC
  5
C0
  8
BLUE2
 10
-14.85155541922835
 20
-9.415528982296568
 30
0.0
 40
1.099999999999936
 50
270.0000000000003
 51
332.9494029929332
  0
LINE
  5
C1
  8
BLUE2
 10
13.76976196825532
 20
-9.715783854500012
 30
0.0
 11
13.87188962782965
 21
-9.915783854499743
 31
0.0
  0
ARC
  5
C2
  8
BLUE2
 10
14.85155541922831
 20
-9.415528982296502
 30
0.0
 40
1.1
 50
207.050597007071
 51
270.0000000000001
  0
LINE
  5
C3
  8
BLUE2
 10
14.85155541922831
 20
-10.5155289822965
 30
0.0
 11
63.55555555555555
 21
-10.5155289822965
 31
0.0
  0
ARC
  5
C4
  8
BLUE2
 10
63.66743589743591
 20
-9.18085820040351
 30
0.0
 40
1.339351823434794
 50
265.2083166490966
 51
354.229202094013
  0
ARC
  5
C5
  8
BLUE2
 10
63.66743589743589
 20
-9.450199764189508
 30
0.0
 40
1.339351823434815
 50
5.77079790598771
 51
94.79168335090243
  0
LINE
  5
C6
  8
BLUE2
 10
63.55555555555555
 20
-8.115528982296496
 30
0.0
 11
14.74942775965393
 21
-8.11552898229648
 31
0.0
  0
ARC
  5
C7
  8
BLUE2
 10
14.74942775965391
 20
-9.21552898229648
 30
0.0
 40
1.1
 50
89.99999999999908
 51
207.0505970070859
  0
LINE
  5
C8
  8
BLUE2
 10
63.55555555555555
 20
-2.852423185837196
 30
0.0
 11
12.06188437422787
 21
-2.852423185837178
 31
0.0
  0
ARC
  5
C9
  8
BLUE2
 10
12.06188437422789
 20
-3.952423185837178
 30
0.0
 40
1.1
 50
90.00000000000112
 51
207.0505970070862
  0
LINE
  5
CA
  8
BLUE2
 10
11.0822185828293
 20
-4.452678058040714
 30
0.0
 11
11.18434624240363
 21
-4.652678058040444
 31
0.0
  0
ARC
  5
CB
  8
BLUE2
 10
12.16401203380228
 20
-4.152423185837202
 30
0.0
 40
1.1
 50
207.0505970070712
 51
269.9999999999995
  0
LINE
  5
CC
  8
BLUE2
 10
12.16401203380227
 20
-5.252423185837202
 30
0.0
 11
63.55555555555555
 21
-5.252423185837198
 31
0.0
  0
ARC
  5
CD
  8
BLUE2
 10
63.66743589743591
 20
-3.917752403944205
 30
0.0
 40
1.339351823434799
 50
265.2083166490966
 51
354.2292020940127
  0
ARC
  5
CE
  8
BLUE2
 10
63.66743589743591
 20
-4.187093967730188
 30
0.0
 40
1.339351823434796
 50
5.770797905986933
 51
94.79168335090341
  0
LINE
  5
CF
  8
BLUE2
 10
-4.483806328194715
 20
16.72621044878251
 30
0.0
 11
-4.451806328194737
 21
16.92621044878289
 31
0.0
  0
ARC
  5
D0
  8
BLUE2
 10
-5.537991023303113
 20
17.10000000000023
 30
0.0
 40
1.1
 50
350.9097230791779
 51
90.00000000000315
  0
LINE
  5
D1
  8
BLUE2
 10
-5.537991023303173
 20
18.20000000000023
 30
0.0
 11
-60.90000000000022
 21
18.2
 31
0.0
  0
ARC
  5
D2
  8
BLUE2
 10
-60.9
 20
17.10000000000038
 30
0.0
 40
1.1
 50
90.00000000001147
 51
180.0
  0
LINE
  5
D3
  8
BLUE2
 10
-62.0
 20
17.10000000000038
 30
0.0
 11
-62.00000000000025
 21
16.89999999999962
 31
0.0
  0
ARC
  5
D4
  8
BLUE2
 10
-60.90000000000025
 20
16.9
 30
0.0
 40
1.1
 50
180.0000000000198
 51
270.0
  0
LINE
  5
D5
  8
BLUE2
 10
-60.90000000000025
 20
15.8
 30
0.0
 11
-5.569991023303063
 21
15.8
 31
0.0
  0
ARC
  5
D6
  8
BLUE2
 10
-5.569991023303069
 20
16.9
 30
0.0
 40
1.100000000000003
 50
270.0000000000003
 51
350.9097230791695
  0
LINE
  5
D7
  8
BLUE2
 10
24.6107497005988
 20
-21.05830000000005
 30
0.0
 11
55.54999999999978
 21
-21.05830000000033
 31
0.0
  0
ARC
  5
D8
  8
BLUE2
 10
55.55
 20
-4.058300000000333
 30
0.0
 40
17.0
 50
269.9999999999993
 51
0.0000000000001946
  0
LINE
  5
D9
  8
BLUE2
 10
72.55
 20
-4.058300000000275
 30
0.0
 11
72.55
 21
7.862022548539445
 31
0.0
  0
LINE
  5
DA
  8
BLUE2
 10
72.55
 20
7.862022548539445
 30
0.0
 11
72.55107058258056
 21
7.936511108373109
 31
0.0
  0
LINE
  5
DB
  8
BLUE2
 10
72.55107058258056
 20
7.936511108373109
 30
0.0
 11
72.55423751220704
 21
8.009690712146492
 31
0.0
  0
LINE
  5
DC
  8
BLUE2
 10
72.55423751220704
 20
8.009690712146492
 30
0.0
 11
72.55943356170654
 21
8.081604029491466
 31
0.0
  0
LINE
  5
DD
  8
BLUE2
 10
72.55943356170654
 20
8.081604029491466
 30
0.0
 11
72.56659150390625
 21
8.1522937300399
 31
0.0
  0
LINE
  5
DE
  8
BLUE2
 10
72.56659150390625
 20
8.1522937300399
 30
0.0
 11
72.57564411163331
 21
8.22180248342367
 31
0.0
  0
LINE
  5
DF
  8
BLUE2
 10
72.57564411163331
 20
8.22180248342367
 30
0.0
 11
72.58652415771485
 21
8.290172959274646
 31
0.0
  0
LINE
  5
E0
  8
BLUE2
 10
72.58652415771485
 20
8.290172959274646
 30
0.0
 11
72.59916441497802
 21
8.357447827224696
 31
0.0
  0
LINE
  5
E1
  8
BLUE2
 10
72.59916441497802
 20
8.357447827224696
 30
0.0
 11
72.61349765625
 21
8.423669756905696
 31
0.0
  0
LINE
  5
E2
  8
BLUE2
 10
72.61349765625
 20
8.423669756905696
 30
0.0
 11
72.62945665435794
 21
8.488881417949514
 31
0.0
  0
LINE
  5
E3
  8
BLUE2
 10
72.62945665435794
 20
8.488881417949514
 30
0.0
 11
72.64697418212893
 21
8.553125479988022
 31
0.0
  0
LINE
  5
E4
  8
BLUE2
 10
72.64697418212893
 20
8.553125479988022
 30
0.0
 11
72.66598301239014
 21
8.616444612653092
 31
0.0
  0
LINE
  5
E5
  8
BLUE2
 10
72.66598301239014
 20
8.616444612653092
 30
0.0
 11
72.68641591796876
 21
8.678881485576593
 31
0.0
  0
LINE
  5
E6
  8
BLUE2
 10
72.68641591796876
 20
8.678881485576593
 30
0.0
 11
72.7082056716919
 21
8.740478768390398
 31
0.0
  0
LINE
  5
E7
  8
BLUE2
 10
72.7082056716919
 20
8.740478768390398
 30
0.0
 11
72.73128504638673
 21
8.80127913072638
 31
0.0
  0
LINE
  5
E8
  8
BLUE2
 10
72.73128504638673
 20
8.80127913072638
 30
0.0
 11
72.75558681488039
 21
8.861325242216408
 31
0.0
  0
LINE
  5
E9
  8
BLUE2
 10
72.75558681488039
 20
8.861325242216408
 30
0.0
 11
72.78104375000001
 21
8.920659772492353
 31
0.0
  0
LINE
  5
EA
  8
BLUE2
 10
72.78104375000001
 20
8.920659772492353
 30
0.0
 11
72.80758862457276
 21
8.979325391186087
 31
0.0
  0
LINE
  5
EB
  8
BLUE2
 10
72.80758862457276
 20
8.979325391186087
 30
0.0
 11
72.83515421142579
 21
9.037364767929482
 31
0.0
  0
LINE
  5
EC
  8
BLUE2
 10
72.83515421142579
 20
9.037364767929482
 30
0.0
 11
72.89307861328126
 21
9.151735474092742
 31
0.0
  0
LINE
  5
ED
  8
BLUE2
 10
72.89307861328126
 20
9.151735474092742
 30
0.0
 11
72.9542791381836
 21
9.264113248037098
 31
0.0
  0
LINE
  5
EE
  8
BLUE2
 10
72.9542791381836
 20
9.264113248037098
 30
0.0
 11
73.01821796875001
 21
9.374839446817525
 31
0.0
  0
LINE
  5
EF
  8
BLUE2
 10
73.01821796875001
 20
9.374839446817525
 30
0.0
 11
73.15215927734376
 21
9.592702547106466
 31
0.0
  0
LINE
  5
F0
  8
BLUE2
 10
73.15215927734376
 20
9.592702547106466
 30
0.0
 11
73.42922119140627
 21
10.02456956632464
 31
0.0
  0
LINE
  5
F1
  8
BLUE2
 10
73.42922119140627
 20
10.02456956632464
 30
0.0
 11
73.4972303100586
 21
10.13552526069502
 31
0.0
  0
LINE
  5
F2
  8
BLUE2
 10
73.4972303100586
 20
10.13552526069502
 30
0.0
 11
73.56363828125001
 21
10.24967525926593
 31
0.0
  0
LINE
  5
F3
  8
BLUE2
 10
73.56363828125001
 20
10.24967525926593
 30
0.0
 11
73.62789498291016
 21
10.36806592673391
 31
0.0
  0
LINE
  5
F4
  8
BLUE2
 10
73.62789498291016
 20
10.36806592673391
 30
0.0
 11
73.65904469451907
 21
10.42917850027197
 31
0.0
  0
LINE
  5
F5
  8
BLUE2
 10
73.65904469451907
 20
10.42917850027197
 30
0.0
 11
73.68945029296877
 21
10.4917436277955
 31
0.0
  0
LINE
  5
F6
  8
BLUE2
 10
73.68945029296877
 20
10.4917436277955
 30
0.0
 11
73.7190430130005
 21
10.55589210489157
 31
0.0
  0
LINE
  5
F7
  8
BLUE2
 10
73.7190430130005
 20
10.55589210489157
 30
0.0
 11
73.74775408935548
 21
10.62175472714724
 31
0.0
  0
LINE
  5
F8
  8
BLUE2
 10
73.74775408935548
 20
10.62175472714724
 30
0.0
 11
73.77551475677491
 21
10.68946229014959
 31
0.0
  0
LINE
  5
F9
  8
BLUE2
 10
73.77551475677491
 20
10.68946229014959
 30
0.0
 11
73.80225625000001
 21
10.75914558948567
 31
0.0
  0
LINE
  5
FA
  8
BLUE2
 10
73.80225625000001
 20
10.75914558948567
 30
0.0
 11
73.82790980377199
 21
10.83093542074255
 31
0.0
  0
LINE
  5
FB
  8
BLUE2
 10
73.82790980377199
 20
10.83093542074255
 30
0.0
 11
73.85240665283204
 21
10.90496257950731
 31
0.0
  0
LINE
  5
FC
  8
BLUE2
 10
73.85240665283204
 20
10.90496257950731
 30
0.0
 11
73.87567803192141
 21
10.98135786136701
 31
0.0
  0
LINE
  5
FD
  8
BLUE2
 10
73.87567803192141
 20
10.98135786136701
 30
0.0
 11
73.89765517578127
 21
11.06025206190872
 31
0.0
  0
LINE
  5
FE
  8
BLUE2
 10
73.89765517578127
 20
11.06025206190872
 30
0.0
 11
73.91826931915284
 21
11.1417759767195
 31
0.0
  0
LINE
  5
FF
  8
BLUE2
 10
73.91826931915284
 20
11.1417759767195
 30
0.0
 11
73.93745169677736
 21
11.22606040138642
 31
0.0
  0
LINE
  5
100
  8
BLUE2
 10
73.93745169677736
 20
11.22606040138642
 30
0.0
 11
73.95513354339602
 21
11.31323613149655
 31
0.0
  0
LINE
  5
101
  8
BLUE2
 10
73.95513354339602
 20
11.31323613149655
 30
0.0
 11
73.97124609375001
 21
11.40343396263695
 31
0.0
  0
LINE
  5
102
  8
BLUE2
 10
73.97124609375001
 20
11.40343396263695
 30
0.0
 11
73.98572058258057
 21
11.4967846903947
 31
0.0
  0
LINE
  5
103
  8
BLUE2
 10
73.98572058258057
 20
11.4967846903947
 30
0.0
 11
73.99848824462892
 21
11.59341911035686
 31
0.0
  0
LINE
  5
104
  8
BLUE2
 10
73.99848824462892
 20
11.59341911035686
 30
0.0
 11
74.00948031463625
 21
11.69346801811049
 31
0.0
  0
LINE
  5
105
  8
BLUE2
 10
74.00948031463625
 20
11.69346801811049
 30
0.0
 11
74.01862802734377
 21
11.79706220924267
 31
0.0
  0
LINE
  5
106
  8
BLUE2
 10
74.01862802734377
 20
11.79706220924267
 30
0.0
 11
74.02586261749269
 21
11.90433247934046
 31
0.0
  0
LINE
  5
107
  8
BLUE2
 10
74.02586261749269
 20
11.90433247934046
 30
0.0
 11
74.03111531982424
 21
12.01540962399094
 31
0.0
  0
LINE
  5
108
  8
BLUE2
 10
74.03111531982424
 20
12.01540962399094
 30
0.0
 11
74.0343173690796
 21
12.13042443878115
 31
0.0
  0
LINE
  5
109
  8
BLUE2
 10
74.0343173690796
 20
12.13042443878115
 30
0.0
 11
74.03540000000001
 21
12.24950771929818
 31
0.0
  0
LINE
  5
10A
  8
BLUE2
 10
74.03540000000001
 20
12.24950771929818
 30
0.0
 11
74.03540000000002
 21
20.0375999999995
 31
0.0
  0
ARC
  5
10B
  8
BLUE2
 10
72.03540000000002
 20
20.0376
 30
0.0
 40
2.0
 50
359.9999999999857
 51
89.99999999998575
  0
LINE
  5
10C
  8
BLUE2
 10
72.03540000000052
 20
22.0376
 30
0.0
 11
-72.03540000000052
 21
22.0376
 31
0.0
  0
ARC
  5
10D
  8
BLUE2
 10
-72.03540000000002
 20
20.0376
 30
0.0
 40
2.0
 50
90.00000000001425
 51
180.0000000000143
  0
LINE
  5
10E
  8
BLUE2
 10
-74.03540000000002
 20
20.0375999999995
 30
0.0
 11
-74.03540000000001
 21
12.24950771929818
 31
0.0
  0
LINE
  5
10F
  8
BLUE2
 10
-74.03540000000001
 20
12.24950771929818
 30
0.0
 11
-74.0343173690796
 21
12.13042443878115
 31
0.0
  0
LINE
  5
110
  8
BLUE2
 10
-74.0343173690796
 20
12.13042443878115
 30
0.0
 11
-74.03111531982424
 21
12.01540962399094
 31
0.0
  0
LINE
  5
111
  8
BLUE2
 10
-74.03111531982424
 20
12.01540962399094
 30
0.0
 11
-74.02586261749269
 21
11.90433247934046
 31
0.0
  0
LINE
  5
112
  8
BLUE2
 10
-74.02586261749269
 20
11.90433247934046
 30
0.0
 11
-74.01862802734377
 21
11.79706220924267
 31
0.0
  0
LINE
  5
113
  8
BLUE2
 10
-74.01862802734377
 20
11.79706220924267
 30
0.0
 11
-74.00948031463625
 21
11.69346801811049
 31
0.0
  0
LINE
  5
114
  8
BLUE2
 10
-74.00948031463625
 20
11.69346801811049
 30
0.0
 11
-73.99848824462892
 21
11.59341911035686
 31
0.0
  0
LINE
  5
115
  8
BLUE2
 10
-73.99848824462892
 20
11.59341911035686
 30
0.0
 11
-73.98572058258057
 21
11.4967846903947
 31
0.0
  0
LINE
  5
116
  8
BLUE2
 10
-73.98572058258057
 20
11.4967846903947
 30
0.0
 11
-73.97124609375001
 21
11.40343396263695
 31
0.0
  0
LINE
  5
117
  8
BLUE2
 10
-73.97124609375001
 20
11.40343396263695
 30
0.0
 11
-73.95513354339602
 21
11.31323613149655
 31
0.0
  0
LINE
  5
118
  8
BLUE2
 10
-73.95513354339602
 20
11.31323613149655
 30
0.0
 11
-73.93745169677736
 21
11.22606040138642
 31
0.0
  0
LINE
  5
119
  8
BLUE2
 10
-73.93745169677736
 20
11.22606040138642
 30
0.0
 11
-73.91826931915284
 21
11.1417759767195
 31
0.0
  0
LINE
  5
11A
  8
BLUE2
 10
-73.91826931915284
 20
11.1417759767195
 30
0.0
 11
-73.89765517578127
 21
11.06025206190872
 31
0.0
  0
LINE
  5
11B
  8
BLUE2
 10
-73.89765517578127
 20
11.06025206190872
 30
0.0
 11
-73.87567803192141
 21
10.98135786136701
 31
0.0
  0
LINE
  5
11C
  8
BLUE2
 10
-73.87567803192141
 20
10.98135786136701
 30
0.0
 11
-73.85240665283204
 21
10.90496257950731
 31
0.0
  0
LINE
  5
11D
  8
BLUE2
 10
-73.85240665283204
 20
10.90496257950731
 30
0.0
 11
-73.82790980377199
 21
10.83093542074255
 31
0.0
  0
LINE
  5
11E
  8
BLUE2
 10
-73.82790980377199
 20
10.83093542074255
 30
0.0
 11
-73.80225625000001
 21
10.75914558948567
 31
0.0
  0
LINE
  5
11F
  8
BLUE2
 10
-73.80225625000001
 20
10.75914558948567
 30
0.0
 11
-73.77551475677491
 21
10.68946229014959
 31
0.0
  0
LINE
  5
120
  8
BLUE2
 10
-73.77551475677491
 20
10.68946229014959
 30
0.0
 11
-73.74775408935548
 21
10.62175472714724
 31
0.0
  0
LINE
  5
121
  8
BLUE2
 10
-73.74775408935548
 20
10.62175472714724
 30
0.0
 11
-73.7190430130005
 21
10.55589210489157
 31
0.0
  0
LINE
  5
122
  8
BLUE2
 10
-73.7190430130005
 20
10.55589210489157
 30
0.0
 11
-73.68945029296877
 21
10.4917436277955
 31
0.0
  0
LINE
  5
123
  8
BLUE2
 10
-73.68945029296877
 20
10.4917436277955
 30
0.0
 11
-73.65904469451907
 21
10.42917850027197
 31
0.0
  0
LINE
  5
124
  8
BLUE2
 10
-73.65904469451907
 20
10.42917850027197
 30
0.0
 11
-73.62789498291016
 21
10.36806592673391
 31
0.0
  0
LINE
  5
125
  8
BLUE2
 10
-73.62789498291016
 20
10.36806592673391
 30
0.0
 11
-73.56363828125001
 21
10.24967525926593
 31
0.0
  0
LINE
  5
126
  8
BLUE2
 10
-73.56363828125001
 20
10.24967525926593
 30
0.0
 11
-73.4972303100586
 21
10.13552526069502
 31
0.0
  0
LINE
  5
127
  8
BLUE2
 10
-73.4972303100586
 20
10.13552526069502
 30
0.0
 11
-73.42922119140627
 21
10.02456956632464
 31
0.0
  0
LINE
  5
128
  8
BLUE2
 10
-73.42922119140627
 20
10.02456956632464
 30
0.0
 11
-73.1521593099852
 21
9.592702597521416
 31
0.0
  0
LINE
  5
129
  8
BLUE2
 10
-73.1521593099852
 20
9.592702597521416
 30
0.0
 11
-73.01821803086159
 21
9.374839542775796
 31
0.0
  0
LINE
  5
12A
  8
BLUE2
 10
-73.01821803086159
 20
9.374839542775796
 30
0.0
 11
-72.95427921287933
 21
9.264113363450695
 31
0.0
  0
LINE
  5
12B
  8
BLUE2
 10
-72.95427921287933
 20
9.264113363450695
 30
0.0
 11
-72.89307869861426
 21
9.151735605956386
 31
0.0
  0
LINE
  5
12C
  8
BLUE2
 10
-72.89307869861426
 20
9.151735605956386
 30
0.0
 11
-72.83515430506455
 21
9.037364912642108
 31
0.0
  0
LINE
  5
12D
  8
BLUE2
 10
-72.83515430506455
 20
9.037364912642108
 30
0.0
 11
-72.80758872136987
 21
8.979325540786617
 31
0.0
  0
LINE
  5
12E
  8
BLUE2
 10
-72.80758872136987
 20
8.979325540786617
 30
0.0
 11
-72.78104384922833
 21
8.920659925857098
 31
0.0
  0
LINE
  5
12F
  8
BLUE2
 10
-72.78104384922833
 20
8.920659925857098
 30
0.0
 11
-72.75558691576468
 21
8.861325398147208
 31
0.0
  0
LINE
  5
130
  8
BLUE2
 10
-72.75558691576468
 20
8.861325398147208
 30
0.0
 11
-72.73128514810371
 21
8.8012792879506
 31
0.0
  0
LINE
  5
131
  8
BLUE2
 10
-72.73128514810371
 20
8.8012792879506
 30
0.0
 11
-72.70820577337017
 21
8.740478925560927
 31
0.0
  0
LINE
  5
132
  8
BLUE2
 10
-72.70820577337017
 20
8.740478925560927
 30
0.0
 11
-72.68641601868885
 21
8.678881641271847
 31
0.0
  0
LINE
  5
133
  8
BLUE2
 10
-72.68641601868885
 20
8.678881641271847
 30
0.0
 11
-72.66598311118449
 21
8.616444765377015
 31
0.0
  0
LINE
  5
134
  8
BLUE2
 10
-72.66598311118449
 20
8.616444765377015
 30
0.0
 11
-72.64697427798187
 21
8.553125628170084
 31
0.0
  0
LINE
  5
135
  8
BLUE2
 10
-72.64697427798187
 20
8.553125628170084
 30
0.0
 11
-72.62945674620575
 21
8.48888155994471
 31
0.0
  0
LINE
  5
136
  8
BLUE2
 10
-72.62945674620575
 20
8.48888155994471
 30
0.0
 11
-72.61349774298091
 21
8.423669890994548
 31
0.0
  0
LINE
  5
137
  8
BLUE2
 10
-72.61349774298091
 20
8.423669890994548
 30
0.0
 11
-72.59916449543212
 21
8.357447951613253
 31
0.0
  0
LINE
  5
138
  8
BLUE2
 10
-72.59916449543212
 20
8.357447951613253
 30
0.0
 11
-72.5865242306841
 21
8.290173072094477
 31
0.0
  0
LINE
  5
139
  8
BLUE2
 10
-72.5865242306841
 20
8.290173072094477
 30
0.0
 11
-72.57564417586167
 21
8.221802582731879
 31
0.0
  0
LINE
  5
13A
  8
BLUE2
 10
-72.57564417586167
 20
8.221802582731879
 30
0.0
 11
-72.56659155808958
 21
8.152293813819112
 31
0.0
  0
LINE
  5
13B
  8
BLUE2
 10
-72.56659155808958
 20
8.152293813819112
 30
0.0
 11
-72.55943360449263
 21
8.08160409564983
 31
0.0
  0
LINE
  5
13C
  8
BLUE2
 10
-72.55943360449263
 20
8.08160409564983
 30
0.0
 11
-72.55423754219552
 21
8.00969075851769
 31
0.0
  0
LINE
  5
13D
  8
BLUE2
 10
-72.55423754219552
 20
8.00969075851769
 30
0.0
 11
-72.55107059832305
 21
7.936511132716345
 31
0.0
  0
LINE
  5
13E
  8
BLUE2
 10
-72.55107059832305
 20
7.936511132716345
 30
0.0
 11
-72.54999999999998
 21
7.862022548539452
 31
0.0
  0
LINE
  5
13F
  8
BLUE2
 10
-72.54999999999998
 20
7.862022548539452
 30
0.0
 11
-72.55
 21
-4.058300000000268
 31
0.0
  0
ARC
  5
140
  8
BLUE2
 10
-55.55
 20
-4.05830000000033
 30
0.0
 40
17.0
 50
179.9999999999998
 51
270.0000000000007
  0
LINE
  5
141
  8
BLUE2
 10
-55.54999999999977
 20
-21.05830000000033
 30
0.0
 11
-24.98526152814998
 21
-21.05830000000006
 31
0.0
  0
LINE
  5
142
  8
BLUE2
 10
-24.98526152814998
 20
-21.05830000000006
 30
0.0
 11
-23.89302582352038
 21
-21.03780961608892
 31
0.0
  0
LINE
  5
143
  8
BLUE2
 10
-23.89302582352038
 20
-21.03780961608892
 30
0.0
 11
-22.86207267028959
 21
-20.98793513183598
 31
0.0
  0
LINE
  5
144
  8
BLUE2
 10
-22.86207267028959
 20
-20.98793513183598
 30
0.0
 11
-21.8901782046524
 21
-20.90967467346196
 31
0.0
  0
LINE
  5
145
  8
BLUE2
 10
-21.8901782046524
 20
-20.90967467346196
 30
0.0
 11
-21.42568302224227
 21
-20.8602116184235
 31
0.0
  0
LINE
  5
146
  8
BLUE2
 10
-21.42568302224227
 20
-20.8602116184235
 30
0.0
 11
-20.9751185628036
 21
-20.80402636718754
 31
0.0
  0
LINE
  5
147
  8
BLUE2
 10
-20.9751185628036
 20
-20.80402636718754
 30
0.0
 11
-20.53820684336072
 21
-20.74124368553165
 31
0.0
  0
LINE
  5
148
  8
BLUE2
 10
-20.53820684336072
 20
-20.74124368553165
 30
0.0
 11
-20.11466988093799
 21
-20.67198833923343
 31
0.0
  0
LINE
  5
149
  8
BLUE2
 10
-20.11466988093799
 20
-20.67198833923343
 30
0.0
 11
-19.70422969255975
 21
-20.59638509407047
 31
0.0
  0
LINE
  5
14A
  8
BLUE2
 10
-19.70422969255975
 20
-20.59638509407047
 30
0.0
 11
-19.30660829525037
 21
-20.51455871582035
 31
0.0
  0
LINE
  5
14B
  8
BLUE2
 10
-19.30660829525037
 20
-20.51455871582035
 30
0.0
 11
-18.92152770603418
 21
-20.42663397026065
 31
0.0
  0
LINE
  5
14C
  8
BLUE2
 10
-18.92152770603418
 20
-20.42663397026065
 30
0.0
 11
-18.54870994193553
 21
-20.33273562316897
 31
0.0
  0
LINE
  5
14D
  8
BLUE2
 10
-18.54870994193553
 20
-20.33273562316897
 30
0.0
 11
-18.18787701997878
 21
-20.2329884403229
 31
0.0
  0
LINE
  5
14E
  8
BLUE2
 10
-18.18787701997878
 20
-20.2329884403229
 30
0.0
 11
-17.83875095718827
 21
-20.12751718750003
 31
0.0
  0
LINE
  5
14F
  8
BLUE2
 10
-17.83875095718827
 20
-20.12751718750003
 30
0.0
 11
-17.50105377058836
 21
-20.01644663047793
 31
0.0
  0
LINE
  5
150
  8
BLUE2
 10
-17.50105377058836
 20
-20.01644663047793
 30
0.0
 11
-17.17450747720339
 21
-19.8999015350342
 31
0.0
  0
LINE
  5
151
  8
BLUE2
 10
-17.17450747720339
 20
-19.8999015350342
 30
0.0
 11
-16.85883409405772
 21
-19.77800666694643
 31
0.0
  0
LINE
  5
152
  8
BLUE2
 10
-16.85883409405772
 20
-19.77800666694643
 30
0.0
 11
-16.55375563817569
 21
-19.65088679199221
 31
0.0
  0
LINE
  5
153
  8
BLUE2
 10
-16.55375563817569
 20
-19.65088679199221
 30
0.0
 11
-16.25899412658165
 21
-19.51866667594911
 31
0.0
  0
LINE
  5
154
  8
BLUE2
 10
-16.25899412658165
 20
-19.51866667594911
 30
0.0
 11
-15.97427157629996
 21
-19.38147108459474
 31
0.0
  0
LINE
  5
155
  8
BLUE2
 10
-15.97427157629996
 20
-19.38147108459474
 30
0.0
 11
-15.69931000435495
 21
-19.23942478370668
 31
0.0
  0
LINE
  5
156
  8
BLUE2
 10
-15.69931000435495
 20
-19.23942478370668
 30
0.0
 11
-15.43383142777099
 21
-19.09265253906251
 31
0.0
  0
LINE
  5
157
  8
BLUE2
 10
-15.43383142777099
 20
-19.09265253906251
 30
0.0
 11
-15.17755786357242
 21
-18.94127911643983
 31
0.0
  0
LINE
  5
158
  8
BLUE2
 10
-15.17755786357242
 20
-18.94127911643983
 30
0.0
 11
-14.93021132878359
 21
-18.78542928161622
 31
0.0
  0
LINE
  5
159
  8
BLUE2
 10
-14.93021132878359
 20
-18.78542928161622
 30
0.0
 11
-14.69151384042885
 21
-18.62522780036928
 31
0.0
  0
LINE
  5
15A
  8
BLUE2
 10
-14.69151384042885
 20
-18.62522780036928
 30
0.0
 11
-14.46118741553255
 21
-18.46079943847657
 31
0.0
  0
LINE
  5
15B
  8
BLUE2
 10
-14.46118741553255
 20
-18.46079943847657
 30
0.0
 11
-14.23895407111904
 21
-18.29226896171571
 31
0.0
  0
LINE
  5
15C
  8
BLUE2
 10
-14.23895407111904
 20
-18.29226896171571
 30
0.0
 11
-14.02453582421267
 21
-18.11976113586427
 31
0.0
  0
LINE
  5
15D
  8
BLUE2
 10
-14.02453582421267
 20
-18.11976113586427
 30
0.0
 11
-13.81765469183779
 21
-17.94340072669983
 31
0.0
  0
LINE
  5
15E
  8
BLUE2
 10
-13.81765469183779
 20
-17.94340072669983
 30
0.0
 11
-13.61803269101875
 21
-17.76331250000001
 31
0.0
  0
LINE
  5
15F
  8
BLUE2
 10
-13.61803269101875
 20
-17.76331250000001
 30
0.0
 11
-13.42539183877989
 21
-17.57962122154237
 31
0.0
  0
LINE
  5
160
  8
BLUE2
 10
-13.42539183877989
 20
-17.57962122154237
 30
0.0
 11
-13.23945415214557
 21
-17.3924516571045
 31
0.0
  0
LINE
  5
161
  8
BLUE2
 10
-13.23945415214557
 20
-17.3924516571045
 30
0.0
 11
-13.05994164814014
 21
-17.20192857246399
 31
0.0
  0
LINE
  5
162
  8
BLUE2
 10
-13.05994164814014
 20
-17.20192857246399
 30
0.0
 11
-12.88657634378795
 21
-17.00817673339844
 31
0.0
  0
LINE
  5
163
  8
BLUE2
 10
-12.88657634378795
 20
-17.00817673339844
 30
0.0
 11
-12.71908025611334
 21
-16.81132090568543
 31
0.0
  0
LINE
  5
164
  8
BLUE2
 10
-12.71908025611334
 20
-16.81132090568543
 30
0.0
 11
-12.55717540214067
 21
-16.61148585510254
 31
0.0
  0
LINE
  5
165
  8
BLUE2
 10
-12.55717540214067
 20
-16.61148585510254
 30
0.0
 11
-12.40058379889429
 21
-16.40879634742737
 31
0.0
  0
LINE
  5
166
  8
BLUE2
 10
-12.40058379889429
 20
-16.40879634742737
 30
0.0
 11
-12.24902746339853
 21
-16.2033771484375
 31
0.0
  0
LINE
  5
167
  8
BLUE2
 10
-12.24902746339853
 20
-16.2033771484375
 30
0.0
 11
-12.10222841267777
 21
-15.99535302391052
 31
0.0
  0
LINE
  5
168
  8
BLUE2
 10
-12.10222841267777
 20
-15.99535302391052
 30
0.0
 11
-11.95990866375634
 21
-15.78484873962402
 31
0.0
  0
LINE
  5
169
  8
BLUE2
 10
-11.95990866375634
 20
-15.78484873962402
 30
0.0
 11
-11.82179023365859
 21
-15.57198906135559
 31
0.0
  0
LINE
  5
16A
  8
BLUE2
 10
-11.82179023365859
 20
-15.57198906135559
 30
0.0
 11
-11.68759513940887
 21
-15.35689875488281
 31
0.0
  0
LINE
  5
16B
  8
BLUE2
 10
-11.68759513940887
 20
-15.35689875488281
 30
0.0
 11
-11.42986302655094
 21
-14.92052532043457
 31
0.0
  0
LINE
  5
16C
  8
BLUE2
 10
-11.42986302655094
 20
-14.92052532043457
 30
0.0
 11
-11.18448846137735
 21
-14.4767265625
 31
0.0
  0
LINE
  5
16D
  8
BLUE2
 10
-11.18448846137735
 20
-14.4767265625
 30
0.0
 11
-10.94924758008287
 21
-14.02650060729981
 31
0.0
  0
LINE
  5
16E
  8
BLUE2
 10
-10.94924758008287
 20
-14.02650060729981
 30
0.0
 11
-9.399500000000003
 21
-10.7788
 31
0.0
  0
LINE
  5
16F
  8
BLUE2
 10
-9.399500000000003
 20
-10.7788
 30
0.0
 11
-9.14947867134148
 21
-10.28369007238658
 31
0.0
  0
LINE
  5
170
  8
BLUE2
 10
-9.14947867134148
 20
-10.28369007238658
 30
0.0
 11
-8.895293684522631
 21
-9.804158333917783
 31
0.0
  0
LINE
  5
171
  8
BLUE2
 10
-8.895293684522631
 20
-9.804158333917783
 30
0.0
 11
-8.637078831967145
 21
-9.340215026079772
 31
0.0
  0
LINE
  5
172
  8
BLUE2
 10
-8.637078831967145
 20
-9.340215026079772
 30
0.0
 11
-8.374967906098718
 21
-8.891870390358697
 31
0.0
  0
LINE
  5
173
  8
BLUE2
 10
-8.374967906098718
 20
-8.891870390358697
 30
0.0
 11
-8.109094699341039
 21
-8.459134668240718
 31
0.0
  0
LINE
  5
174
  8
BLUE2
 10
-8.109094699341039
 20
-8.459134668240718
 30
0.0
 11
-7.839593004117804
 21
-8.042018101211992
 31
0.0
  0
LINE
  5
175
  8
BLUE2
 10
-7.839593004117804
 20
-8.042018101211992
 30
0.0
 11
-7.566596612852702
 21
-7.640530930758672
 31
0.0
  0
LINE
  5
176
  8
BLUE2
 10
-7.566596612852702
 20
-7.640530930758672
 30
0.0
 11
-7.290239317969426
 21
-7.254683398366915
 31
0.0
  0
LINE
  5
177
  8
BLUE2
 10
-7.290239317969426
 20
-7.254683398366915
 30
0.0
 11
-7.010654911891668
 21
-6.884485745522879
 31
0.0
  0
LINE
  5
178
  8
BLUE2
 10
-7.010654911891668
 20
-6.884485745522879
 30
0.0
 11
-6.727977187043121
 21
-6.529948213712717
 31
0.0
  0
LINE
  5
179
  8
BLUE2
 10
-6.727977187043121
 20
-6.529948213712717
 30
0.0
 11
-6.442339935847476
 21
-6.191081044422587
 31
0.0
  0
LINE
  5
17A
  8
BLUE2
 10
-6.442339935847476
 20
-6.191081044422587
 30
0.0
 11
-6.153876950728427
 21
-5.867894479138645
 31
0.0
  0
LINE
  5
17B
  8
BLUE2
 10
-6.153876950728427
 20
-5.867894479138645
 30
0.0
 11
-5.862722024109665
 21
-5.560398759347046
 31
0.0
  0
LINE
  5
17C
  8
BLUE2
 10
-5.862722024109665
 20
-5.560398759347046
 30
0.0
 11
-5.569008948414881
 21
-5.268604126533948
 31
0.0
  0
LINE
  5
17D
  8
BLUE2
 10
-5.569008948414881
 20
-5.268604126533948
 30
0.0
 11
-5.272871516067769
 21
-4.992520822185507
 31
0.0
  0
LINE
  5
17E
  8
BLUE2
 10
-5.272871516067769
 20
-4.992520822185507
 30
0.0
 11
-4.974443519492021
 21
-4.732159087787878
 31
0.0
  0
LINE
  5
17F
  8
BLUE2
 10
-4.974443519492021
 20
-4.732159087787878
 30
0.0
 11
-4.673858751111329
 21
-4.487529164827217
 31
0.0
  0
LINE
  5
180
  8
BLUE2
 10
-4.673858751111329
 20
-4.487529164827217
 30
0.0
 11
-4.522799387626533
 21
-4.371116833100174
 31
0.0
  0
LINE
  5
181
  8
BLUE2
 10
-4.522799387626533
 20
-4.371116833100174
 30
0.0
 11
-4.371251003349384
 21
-4.258641294789682
 31
0.0
  0
LINE
  5
182
  8
BLUE2
 10
-4.371251003349384
 20
-4.258641294789682
 30
0.0
 11
-4.219230322332846
 21
-4.150103830081511
 31
0.0
  0
LINE
  5
183
  8
BLUE2
 10
-4.219230322332846
 20
-4.150103830081511
 30
0.0
 11
-4.06675406862988
 21
-4.045505719161428
 31
0.0
  0
LINE
  5
184
  8
BLUE2
 10
-4.06675406862988
 20
-4.045505719161428
 30
0.0
 11
-3.913838966293447
 21
-3.944848242215205
 31
0.0
  0
LINE
  5
185
  8
BLUE2
 10
-3.913838966293447
 20
-3.944848242215205
 30
0.0
 11
-3.760501739376508
 21
-3.848132679428611
 31
0.0
  0
LINE
  5
186
  8
BLUE2
 10
-3.760501739376508
 20
-3.848132679428611
 30
0.0
 11
-3.606759111932026
 21
-3.755360310987415
 31
0.0
  0
LINE
  5
187
  8
BLUE2
 10
-3.606759111932026
 20
-3.755360310987415
 30
0.0
 11
-3.452627808012961
 21
-3.666532417077387
 31
0.0
  0
LINE
  5
188
  8
BLUE2
 10
-3.452627808012961
 20
-3.666532417077387
 30
0.0
 11
-3.298124551672275
 21
-3.581650277884296
 31
0.0
  0
LINE
  5
189
  8
BLUE2
 10
-3.298124551672275
 20
-3.581650277884296
 30
0.0
 11
-3.143266066962931
 21
-3.500715173593912
 31
0.0
  0
LINE
  5
18A
  8
BLUE2
 10
-3.143266066962931
 20
-3.500715173593912
 30
0.0
 11
-2.988069077937888
 21
-3.423728384392005
 31
0.0
  0
LINE
  5
18B
  8
BLUE2
 10
-2.988069077937888
 20
-3.423728384392005
 30
0.0
 11
-2.83255030865011
 21
-3.350691190464343
 31
0.0
  0
LINE
  5
18C
  8
BLUE2
 10
-2.83255030865011
 20
-3.350691190464343
 30
0.0
 11
-2.676726483152556
 21
-3.281604871996697
 31
0.0
  0
LINE
  5
18D
  8
BLUE2
 10
-2.676726483152556
 20
-3.281604871996697
 30
0.0
 11
-2.520614325498189
 21
-3.216470709174836
 31
0.0
  0
LINE
  5
18E
  8
BLUE2
 10
-2.520614325498189
 20
-3.216470709174836
 30
0.0
 11
-2.364230559739971
 21
-3.15528998218453
 31
0.0
  0
LINE
  5
18F
  8
BLUE2
 10
-2.364230559739971
 20
-3.15528998218453
 30
0.0
 11
-2.207591909930862
 21
-3.098063971211547
 31
0.0
  0
LINE
  5
190
  8
BLUE2
 10
-2.207591909930862
 20
-3.098063971211547
 30
0.0
 11
-2.050715100123825
 21
-3.044793956441659
 31
0.0
  0
LINE
  5
191
  8
BLUE2
 10
-2.050715100123825
 20
-3.044793956441659
 30
0.0
 11
-1.893616854371821
 21
-2.995481218060633
 31
0.0
  0
LINE
  5
192
  8
BLUE2
 10
-1.893616854371821
 20
-2.995481218060633
 30
0.0
 11
-1.736313896727811
 21
-2.950127036254239
 31
0.0
  0
LINE
  5
193
  8
BLUE2
 10
-1.736313896727811
 20
-2.950127036254239
 30
0.0
 11
-1.578822951244757
 21
-2.908732691208248
 31
0.0
  0
LINE
  5
194
  8
BLUE2
 10
-1.578822951244757
 20
-2.908732691208248
 30
0.0
 11
-1.421160741975621
 21
-2.871299463108429
 31
0.0
  0
LINE
  5
195
  8
BLUE2
 10
-1.421160741975621
 20
-2.871299463108429
 30
0.0
 11
-1.263343992973363
 21
-2.83782863214055
 31
0.0
  0
LINE
  5
196
  8
BLUE2
 10
-1.263343992973363
 20
-2.83782863214055
 30
0.0
 11
-1.105389428290947
 21
-2.808321478490382
 31
0.0
  0
LINE
  5
197
  8
BLUE2
 10
-1.105389428290947
 20
-2.808321478490382
 30
0.0
 11
-0.9473137719813318
 21
-2.782779282343694
 31
0.0
  0
LINE
  5
198
  8
BLUE2
 10
-0.9473137719813318
 20
-2.782779282343694
 30
0.0
 11
-0.7891337480974805
 21
-2.761203323886257
 31
0.0
  0
LINE
  5
199
  8
BLUE2
 10
-0.7891337480974805
 20
-2.761203323886257
 30
0.0
 11
-0.6308660806923543
 21
-2.743594883303837
 31
0.0
  0
LINE
  5
19A
  8
BLUE2
 10
-0.6308660806923543
 20
-2.743594883303837
 30
0.0
 11
-0.4725274938189147
 21
-2.729955240782207
 31
0.0
  0
LINE
  5
19B
  8
BLUE2
 10
-0.4725274938189147
 20
-2.729955240782207
 30
0.0
 11
-0.3141347115301233
 21
-2.720285676507135
 31
0.0
  0
LINE
  5
19C
  8
BLUE2
 10
-0.3141347115301233
 20
-2.720285676507135
 30
0.0
 11
-0.1557044578789417
 21
-2.714587470664392
 31
0.0
  0
LINE
  5
19D
  8
BLUE2
 10
-0.1557044578789417
 20
-2.714587470664392
 30
0.0
 11
0.0027465430816689
 21
-2.712861903439745
 31
0.0
  0
LINE
  5
19E
  8
BLUE2
 10
0.0027465430816689
 20
-2.712861903439745
 30
0.0
 11
0.1612014834809036
 21
-2.715109700761658
 31
0.0
  0
LINE
  5
19F
  8
BLUE2
 10
0.1612014834809036
 20
-2.715109700761658
 30
0.0
 11
0.3196432201765858
 21
-2.721329371529364
 31
0.0
  0
LINE
  5
1A0
  8
BLUE2
 10
0.3196432201765858
 20
-2.721329371529364
 30
0.0
 11
0.4780545262086953
 21
-2.731518870384791
 31
0.0
  0
LINE
  5
1A1
  8
BLUE2
 10
0.4780545262086953
 20
-2.731518870384791
 30
0.0
 11
0.6364181746172124
 21
-2.745676151969866
 31
0.0
  0
LINE
  5
1A2
  8
BLUE2
 10
0.6364181746172124
 20
-2.745676151969866
 30
0.0
 11
0.794716938442117
 21
-2.763799170926514
 31
0.0
  0
LINE
  5
1A3
  8
BLUE2
 10
0.794716938442117
 20
-2.763799170926514
 30
0.0
 11
0.9529335907233891
 21
-2.785885881896663
 31
0.0
  0
LINE
  5
1A4
  8
BLUE2
 10
0.9529335907233891
 20
-2.785885881896663
 30
0.0
 11
1.111050904501009
 21
-2.811934239522239
 31
0.0
  0
LINE
  5
1A5
  8
BLUE2
 10
1.111050904501009
 20
-2.811934239522239
 30
0.0
 11
1.269051652814957
 21
-2.84194219844517
 31
0.0
  0
LINE
  5
1A6
  8
BLUE2
 10
1.269051652814957
 20
-2.84194219844517
 30
0.0
 11
1.426918608705212
 21
-2.875907713307382
 31
0.0
  0
LINE
  5
1A7
  8
BLUE2
 10
1.426918608705212
 20
-2.875907713307382
 30
0.0
 11
1.584634545211756
 21
-2.913828738750802
 31
0.0
  0
LINE
  5
1A8
  8
BLUE2
 10
1.584634545211756
 20
-2.913828738750802
 30
0.0
 11
1.742182235374567
 21
-2.955703229417357
 31
0.0
  0
LINE
  5
1A9
  8
BLUE2
 10
1.742182235374567
 20
-2.955703229417357
 30
0.0
 11
1.899544452233626
 21
-3.001529139948973
 31
0.0
  0
LINE
  5
1AA
  8
BLUE2
 10
1.899544452233626
 20
-3.001529139948973
 30
0.0
 11
2.056703968828914
 21
-3.051304424987578
 31
0.0
  0
LINE
  5
1AB
  8
BLUE2
 10
2.056703968828914
 20
-3.051304424987578
 30
0.0
 11
2.213643558200409
 21
-3.105027039175098
 31
0.0
  0
LINE
  5
1AC
  8
BLUE2
 10
2.213643558200409
 20
-3.105027039175098
 30
0.0
 11
2.370345993388093
 21
-3.162694937153459
 31
0.0
  0
LINE
  5
1AD
  8
BLUE2
 10
2.370345993388093
 20
-3.162694937153459
 30
0.0
 11
2.526794047431944
 21
-3.224306073564589
 31
0.0
  0
LINE
  5
1AE
  8
BLUE2
 10
2.526794047431944
 20
-3.224306073564589
 30
0.0
 11
2.682970493371944
 21
-3.289858403050415
 31
0.0
  0
LINE
  5
1AF
  8
BLUE2
 10
2.682970493371944
 20
-3.289858403050415
 30
0.0
 11
2.838858104248073
 21
-3.359349880252863
 31
0.0
  0
LINE
  5
1B0
  8
BLUE2
 10
2.838858104248073
 20
-3.359349880252863
 30
0.0
 11
2.99443965310031
 21
-3.432778459813861
 31
0.0
  0
LINE
  5
1B1
  8
BLUE2
 10
2.99443965310031
 20
-3.432778459813861
 30
0.0
 11
3.149697912968636
 21
-3.510142096375334
 31
0.0
  0
LINE
  5
1B2
  8
BLUE2
 10
3.149697912968636
 20
-3.510142096375334
 30
0.0
 11
3.30461565689303
 21
-3.59143874457921
 31
0.0
  0
LINE
  5
1B3
  8
BLUE2
 10
3.30461565689303
 20
-3.59143874457921
 30
0.0
 11
3.459175657913473
 21
-3.676666359067415
 31
0.0
  0
LINE
  5
1B4
  8
BLUE2
 10
3.459175657913473
 20
-3.676666359067415
 30
0.0
 11
3.613360689069944
 21
-3.765822894481877
 31
0.0
  0
LINE
  5
1B5
  8
BLUE2
 10
3.613360689069944
 20
-3.765822894481877
 30
0.0
 11
3.767153523402425
 21
-3.858906305464521
 31
0.0
  0
LINE
  5
1B6
  8
BLUE2
 10
3.767153523402425
 20
-3.858906305464521
 30
0.0
 11
3.920536933950894
 21
-3.955914546657276
 31
0.0
  0
LINE
  5
1B7
  8
BLUE2
 10
3.920536933950894
 20
-3.955914546657276
 30
0.0
 11
4.073493693755331
 21
-4.056845572702067
 31
0.0
  0
LINE
  5
1B8
  8
BLUE2
 10
4.073493693755331
 20
-4.056845572702067
 30
0.0
 11
4.226006575855719
 21
-4.161697338240822
 31
0.0
  0
LINE
  5
1B9
  8
BLUE2
 10
4.226006575855719
 20
-4.161697338240822
 30
0.0
 11
4.378058353292035
 21
-4.270467797915466
 31
0.0
  0
LINE
  5
1BA
  8
BLUE2
 10
4.378058353292035
 20
-4.270467797915466
 30
0.0
 11
4.52963179910426
 21
-4.383154906367928
 31
0.0
  0
LINE
  5
1BB
  8
BLUE2
 10
4.52963179910426
 20
-4.383154906367928
 30
0.0
 11
4.680709686332376
 21
-4.499756618240133
 31
0.0
  0
LINE
  5
1BC
  8
BLUE2
 10
4.680709686332376
 20
-4.499756618240133
 30
0.0
 11
4.981309877196193
 21
-4.744695670811483
 31
0.0
  0
LINE
  5
1BD
  8
BLUE2
 10
4.981309877196193
 20
-4.744695670811483
 30
0.0
 11
5.279721110203328
 21
-5.00526859276493
 31
0.0
  0
LINE
  5
1BE
  8
BLUE2
 10
5.279721110203328
 20
-5.00526859276493
 30
0.0
 11
5.575805569673619
 21
-5.281459021235888
 31
0.0
  0
LINE
  5
1BF
  8
BLUE2
 10
5.575805569673619
 20
-5.281459021235888
 30
0.0
 11
5.869425439926911
 21
-5.573250593359771
 31
0.0
  0
LINE
  5
1C0
  8
BLUE2
 10
5.869425439926911
 20
-5.573250593359771
 30
0.0
 11
6.160442905283041
 21
-5.880626946271994
 31
0.0
  0
LINE
  5
1C1
  8
BLUE2
 10
6.160442905283041
 20
-5.880626946271994
 30
0.0
 11
6.448720150061852
 21
-6.20357171710797
 31
0.0
  0
LINE
  5
1C2
  8
BLUE2
 10
6.448720150061852
 20
-6.20357171710797
 30
0.0
 11
6.734119358583182
 21
-6.542068543003116
 31
0.0
  0
LINE
  5
1C3
  8
BLUE2
 10
6.734119358583182
 20
-6.542068543003116
 30
0.0
 11
7.016502715166872
 21
-6.896101061092844
 31
0.0
  0
LINE
  5
1C4
  8
BLUE2
 10
7.016502715166872
 20
-6.896101061092844
 30
0.0
 11
7.295732404132764
 21
-7.26565290851257
 31
0.0
  0
LINE
  5
1C5
  8
BLUE2
 10
7.295732404132764
 20
-7.26565290851257
 30
0.0
 11
7.571670609800697
 21
-7.650707722397708
 31
0.0
  0
LINE
  5
1C6
  8
BLUE2
 10
7.571670609800697
 20
-7.650707722397708
 30
0.0
 11
7.844179516490514
 21
-8.051249139883671
 31
0.0
  0
LINE
  5
1C7
  8
BLUE2
 10
7.844179516490514
 20
-8.051249139883671
 30
0.0
 11
8.113121308522054
 21
-8.467260798105876
 31
0.0
  0
LINE
  5
1C8
  8
BLUE2
 10
8.113121308522054
 20
-8.467260798105876
 30
0.0
 11
8.378358170215154
 21
-8.898726334199733
 31
0.0
  0
LINE
  5
1C9
  8
BLUE2
 10
8.378358170215154
 20
-8.898726334199733
 30
0.0
 11
8.639752285889658
 21
-9.345629385300658
 31
0.0
  0
LINE
  5
1CA
  8
BLUE2
 10
8.639752285889658
 20
-9.345629385300658
 30
0.0
 11
8.897165839865409
 21
-9.807953588544068
 31
0.0
  0
LINE
  5
1CB
  8
BLUE2
 10
8.897165839865409
 20
-9.807953588544068
 30
0.0
 11
9.150461016462243
 21
-10.28568258106538
 31
0.0
  0
LINE
  5
1CC
  8
BLUE2
 10
9.150461016462243
 20
-10.28568258106538
 30
0.0
 11
9.399500000000003
 21
-10.7788
 31
0.0
  0
LINE
  5
1CD
  8
BLUE2
 10
9.399500000000003
 20
-10.7788
 30
0.0
 11
10.94532736655595
 21
-14.02650060729981
 31
0.0
  0
LINE
  5
1CE
  8
BLUE2
 10
10.94532736655595
 20
-14.02650060729981
 30
0.0
 11
11.17863671407186
 21
-14.4767265625
 31
0.0
  0
LINE
  5
1CF
  8
BLUE2
 10
11.17863671407186
 20
-14.4767265625
 30
0.0
 11
11.421531144157
 21
-14.92052532043457
 31
0.0
  0
LINE
  5
1D0
  8
BLUE2
 10
11.421531144157
 20
-14.92052532043457
 30
0.0
 11
11.67616594545285
 21
-15.35689875488281
 31
0.0
  0
LINE
  5
1D1
  8
BLUE2
 10
11.67616594545285
 20
-15.35689875488281
 30
0.0
 11
11.94469640660086
 21
-15.78484873962402
 31
0.0
  0
LINE
  5
1D2
  8
BLUE2
 10
11.94469640660086
 20
-15.78484873962402
 30
0.0
 11
12.08484603731989
 21
-15.99535302391052
 31
0.0
  0
LINE
  5
1D3
  8
BLUE2
 10
12.08484603731989
 20
-15.99535302391052
 30
0.0
 11
12.22927781624252
 21
-16.2033771484375
 31
0.0
  0
LINE
  5
1D4
  8
BLUE2
 10
12.22927781624252
 20
-16.2033771484375
 30
0.0
 11
12.37826115444892
 21
-16.40879634742737
 31
0.0
  0
LINE
  5
1D5
  8
BLUE2
 10
12.37826115444892
 20
-16.40879634742737
 30
0.0
 11
12.53206546301928
 21
-16.61148585510254
 31
0.0
  0
LINE
  5
1D6
  8
BLUE2
 10
12.53206546301928
 20
-16.61148585510254
 30
0.0
 11
12.69096015303378
 21
-16.81132090568543
 31
0.0
  0
LINE
  5
1D7
  8
BLUE2
 10
12.69096015303378
 20
-16.81132090568543
 30
0.0
 11
12.85521463557261
 21
-17.00817673339844
 31
0.0
  0
LINE
  5
1D8
  8
BLUE2
 10
12.85521463557261
 20
-17.00817673339844
 30
0.0
 11
13.02509832171594
 21
-17.20192857246399
 31
0.0
  0
LINE
  5
1D9
  8
BLUE2
 10
13.02509832171594
 20
-17.20192857246399
 30
0.0
 11
13.20088062254398
 21
-17.39245165710449
 31
0.0
  0
LINE
  5
1DA
  8
BLUE2
 10
13.20088062254398
 20
-17.39245165710449
 30
0.0
 11
13.38283094913688
 21
-17.57962122154236
 31
0.0
  0
LINE
  5
1DB
  8
BLUE2
 10
13.38283094913688
 20
-17.57962122154236
 30
0.0
 11
13.57121871257485
 21
-17.7633125
 31
0.0
  0
LINE
  5
1DC
  8
BLUE2
 10
13.57121871257485
 20
-17.7633125
 30
0.0
 11
13.76631332393806
 21
-17.94340072669983
 31
0.0
  0
LINE
  5
1DD
  8
BLUE2
 10
13.76631332393806
 20
-17.94340072669983
 30
0.0
 11
13.9683841943067
 21
-18.11976113586427
 31
0.0
  0
LINE
  5
1DE
  8
BLUE2
 10
13.9683841943067
 20
-18.11976113586427
 30
0.0
 11
14.17770073476095
 21
-18.29226896171571
 31
0.0
  0
LINE
  5
1DF
  8
BLUE2
 10
14.17770073476095
 20
-18.29226896171571
 30
0.0
 11
14.39453235638099
 21
-18.46079943847657
 31
0.0
  0
LINE
  5
1E0
  8
BLUE2
 10
14.39453235638099
 20
-18.46079943847657
 30
0.0
 11
14.61914847024701
 21
-18.62522780036927
 31
0.0
  0
LINE
  5
1E1
  8
BLUE2
 10
14.61914847024701
 20
-18.62522780036927
 30
0.0
 11
14.85181848743919
 21
-18.78542928161622
 31
0.0
  0
LINE
  5
1E2
  8
BLUE2
 10
14.85181848743919
 20
-18.78542928161622
 30
0.0
 11
15.09281181903771
 21
-18.94127911643983
 31
0.0
  0
LINE
  5
1E3
  8
BLUE2
 10
15.09281181903771
 20
-18.94127911643983
 30
0.0
 11
15.34239787612275
 21
-19.09265253906251
 31
0.0
  0
LINE
  5
1E4
  8
BLUE2
 10
15.34239787612275
 20
-19.09265253906251
 30
0.0
 11
15.60084606977451
 21
-19.23942478370668
 31
0.0
  0
LINE
  5
1E5
  8
BLUE2
 10
15.60084606977451
 20
-19.23942478370668
 30
0.0
 11
15.86842581107316
 21
-19.38147108459474
 31
0.0
  0
LINE
  5
1E6
  8
BLUE2
 10
15.86842581107316
 20
-19.38147108459474
 30
0.0
 11
16.14540651109889
 21
-19.51866667594911
 31
0.0
  0
LINE
  5
1E7
  8
BLUE2
 10
16.14540651109889
 20
-19.51866667594911
 30
0.0
 11
16.43205758093188
 21
-19.6508867919922
 31
0.0
  0
LINE
  5
1E8
  8
BLUE2
 10
16.43205758093188
 20
-19.6508867919922
 30
0.0
 11
16.72864843165232
 21
-19.77800666694642
 31
0.0
  0
LINE
  5
1E9
  8
BLUE2
 10
16.72864843165232
 20
-19.77800666694642
 30
0.0
 11
17.03544847434038
 21
-19.89990153503419
 31
0.0
  0
LINE
  5
1EA
  8
BLUE2
 10
17.03544847434038
 20
-19.89990153503419
 30
0.0
 11
17.35272712007625
 21
-20.01644663047792
 31
0.0
  0
LINE
  5
1EB
  8
BLUE2
 10
17.35272712007625
 20
-20.01644663047792
 30
0.0
 11
17.68075377994012
 21
-20.12751718750002
 31
0.0
  0
LINE
  5
1EC
  8
BLUE2
 10
17.68075377994012
 20
-20.12751718750002
 30
0.0
 11
18.01979786501217
 21
-20.2329884403229
 31
0.0
  0
LINE
  5
1ED
  8
BLUE2
 10
18.01979786501217
 20
-20.2329884403229
 30
0.0
 11
18.37012878637257
 21
-20.33273562316896
 31
0.0
  0
LINE
  5
1EE
  8
BLUE2
 10
18.37012878637257
 20
-20.33273562316896
 30
0.0
 11
18.73201595510152
 21
-20.42663397026065
 31
0.0
  0
LINE
  5
1EF
  8
BLUE2
 10
18.73201595510152
 20
-20.42663397026065
 30
0.0
 11
19.10572878227919
 21
-20.51455871582034
 31
0.0
  0
LINE
  5
1F0
  8
BLUE2
 10
19.10572878227919
 20
-20.51455871582034
 30
0.0
 11
19.49153667898578
 21
-20.59638509407046
 31
0.0
  0
LINE
  5
1F1
  8
BLUE2
 10
19.49153667898578
 20
-20.59638509407046
 30
0.0
 11
19.88970905630146
 21
-20.67198833923343
 31
0.0
  0
LINE
  5
1F2
  8
BLUE2
 10
19.88970905630146
 20
-20.67198833923343
 30
0.0
 11
20.30051532530642
 21
-20.74124368553164
 31
0.0
  0
LINE
  5
1F3
  8
BLUE2
 10
20.30051532530642
 20
-20.74124368553164
 30
0.0
 11
20.72422489708084
 21
-20.80402636718753
 31
0.0
  0
LINE
  5
1F4
  8
BLUE2
 10
20.72422489708084
 20
-20.80402636718753
 30
0.0
 11
21.1611071827049
 21
-20.8602116184235
 31
0.0
  0
LINE
  5
1F5
  8
BLUE2
 10
21.1611071827049
 20
-20.8602116184235
 30
0.0
 11
21.61143159325879
 21
-20.90967467346195
 31
0.0
  0
LINE
  5
1F6
  8
BLUE2
 10
21.61143159325879
 20
-20.90967467346195
 30
0.0
 11
22.5534844334768
 21
-20.98793513183598
 31
0.0
  0
LINE
  5
1F7
  8
BLUE2
 10
22.5534844334768
 20
-20.98793513183598
 30
0.0
 11
23.55253870637631
 21
-21.03780961608891
 31
0.0
  0
LINE
  5
1F8
  8
BLUE2
 10
23.55253870637631
 20
-21.03780961608891
 30
0.0
 11
24.6107497005988
 21
-21.05830000000005
 31
0.0
  0
ENDSEC
  0
EOF
