G04 #@! TF.GenerationSoftware,KiCad,Pcbnew,(2017-09-07 revision 90668f9ef)-makepkg*
G04 #@! TF.CreationDate,2017-11-26T16:45:10+10:30*
G04 #@! TF.ProjectId,ledGlasses,6C6564476C61737365732E6B69636164,1.00*
G04 #@! TF.SameCoordinates,Original*
G04 #@! TF.FileFunction,Profile,NP*
%FSLAX46Y46*%
G04 Gerber Fmt 4.6, Leading zero omitted, Abs format (unit mm)*
G04 Created by KiCad (PCBNEW (2017-09-07 revision 90668f9ef)-makepkg) date 11/26/17 16:45:10*
%MOMM*%
%LPD*%
G01*
G04 APERTURE LIST*
%ADD10C,0.100000*%
G04 APERTURE END LIST*
D10*
X163120248Y-123628828D02*
X163352918Y-123789029D01*
X170112532Y-125913275D02*
X171054584Y-125991535D01*
X167233116Y-125430234D02*
X167606829Y-125518159D01*
X169662207Y-125863812D02*
X170112532Y-125913275D01*
X162469484Y-123123361D02*
X162678801Y-123295869D01*
X161356315Y-122011777D02*
X161526198Y-122205529D01*
X171054584Y-125991535D02*
X172053639Y-126041410D01*
X168390809Y-125675588D02*
X168801615Y-125744844D01*
X160730378Y-121206977D02*
X160879361Y-121412396D01*
X164369526Y-124385071D02*
X164646507Y-124522267D01*
X163593912Y-123944879D02*
X163843498Y-124096253D01*
X162072319Y-122766912D02*
X162267413Y-122947001D01*
X160585946Y-120998953D02*
X160730378Y-121206977D01*
X166181854Y-125131117D02*
X166520898Y-125236588D01*
X161701981Y-122396052D02*
X161883931Y-122583221D01*
X165229748Y-124781607D02*
X165536548Y-124903502D01*
X167992637Y-125599985D02*
X168390809Y-125675588D01*
X167606829Y-125518159D02*
X167992637Y-125599985D01*
X161192060Y-121814921D02*
X161356315Y-122011777D01*
X160177266Y-120360499D02*
X160445796Y-120788449D01*
X161526198Y-122205529D02*
X161701981Y-122396052D01*
X166871229Y-125336336D02*
X167233116Y-125430234D01*
X166520898Y-125236588D02*
X166871229Y-125336336D01*
X164646507Y-124522267D02*
X164933158Y-124654487D01*
X163843498Y-124096253D02*
X164101946Y-124243025D01*
X162678801Y-123295869D02*
X162895632Y-123464399D01*
X164933158Y-124654487D02*
X165229748Y-124781607D01*
X162895632Y-123464399D02*
X163120248Y-123628828D01*
X165536548Y-124903502D02*
X165853827Y-125020047D01*
X160879361Y-121412396D02*
X161033165Y-121615086D01*
X164101946Y-124243025D02*
X164369526Y-124385071D01*
X160445796Y-120788449D02*
X160585946Y-120998953D01*
X161883931Y-122583221D02*
X162072319Y-122766912D01*
X159922631Y-119924125D02*
X160177266Y-120360499D01*
X172053639Y-126041410D02*
X173111850Y-126061900D01*
X168801615Y-125744844D02*
X169225325Y-125807626D01*
X162267413Y-122947001D02*
X162469484Y-123123361D01*
X169225325Y-125807626D02*
X169662207Y-125863812D01*
X161033165Y-121615086D02*
X161192060Y-121814921D01*
X165853827Y-125020047D02*
X166181854Y-125131117D01*
X163352918Y-123789029D02*
X163593912Y-123944879D01*
X149928019Y-107879508D02*
X150085735Y-107917429D01*
X149454034Y-107789486D02*
X149612151Y-107815534D01*
X147395711Y-107811921D02*
X147553786Y-107786379D01*
X147553786Y-107786379D02*
X147711966Y-107764803D01*
X156614221Y-113470861D02*
X156879458Y-113902326D01*
X155517603Y-111899701D02*
X155796832Y-112269253D01*
X155235219Y-111545669D02*
X155517603Y-111899701D01*
X154370525Y-110576851D02*
X154661543Y-110884227D01*
X153780821Y-110008869D02*
X154076906Y-110285059D01*
X148028573Y-107733555D02*
X148186965Y-107723886D01*
X146293508Y-108101664D02*
X146450385Y-108048394D01*
X151339958Y-108362950D02*
X151495540Y-108436378D01*
X150871446Y-108166295D02*
X151027894Y-108227906D01*
X149770152Y-107845542D02*
X149928019Y-107879508D01*
X149295817Y-107767399D02*
X149454034Y-107789486D01*
X148820743Y-107724929D02*
X148979155Y-107735119D01*
X147237756Y-107841429D02*
X147395711Y-107811921D01*
X156879458Y-113902326D02*
X157140852Y-114349229D01*
X157140852Y-114349229D02*
X157398266Y-114811554D01*
X153030732Y-109386755D02*
X153181810Y-109503357D01*
X151805716Y-108595039D02*
X151960276Y-108680266D01*
X152421637Y-108959515D02*
X152574594Y-109060446D01*
X147711966Y-107764803D02*
X147870234Y-107747195D01*
X156345280Y-113054849D02*
X156614221Y-113470861D01*
X154661543Y-110884227D02*
X154949820Y-111207172D01*
X150243282Y-107959303D02*
X150400644Y-108005129D01*
X152574594Y-109060446D02*
X152727107Y-109165297D01*
X146450385Y-108048394D02*
X146607483Y-107999081D01*
X154076906Y-110285059D02*
X154370525Y-110576851D01*
X153181810Y-109503357D02*
X153482410Y-109748296D01*
X152879158Y-109274068D02*
X153030732Y-109386755D01*
X150085735Y-107917429D02*
X150243282Y-107959303D01*
X151027894Y-108227906D02*
X151184070Y-108293458D01*
X150400644Y-108005129D02*
X150557804Y-108054904D01*
X147079939Y-107874899D02*
X147237756Y-107841429D01*
X150557804Y-108054904D02*
X150714744Y-108108627D01*
X148345396Y-107718187D02*
X148503847Y-107716462D01*
X146764786Y-107953727D02*
X146922277Y-107912333D01*
X148186965Y-107723886D02*
X148345396Y-107718187D01*
X150714744Y-108108627D02*
X150871446Y-108166295D01*
X154949820Y-111207172D02*
X155235219Y-111545669D01*
X151960276Y-108680266D02*
X152114461Y-108769423D01*
X146607483Y-107999081D02*
X146764786Y-107953727D01*
X159679737Y-119480327D02*
X159922631Y-119924125D01*
X149612151Y-107815534D02*
X149770152Y-107845542D01*
X153482410Y-109748296D02*
X153780821Y-110008869D01*
X159446427Y-119030101D02*
X159679737Y-119480327D01*
X152727107Y-109165297D02*
X152879158Y-109274068D01*
X146922277Y-107912333D02*
X147079939Y-107874899D01*
X148979155Y-107735119D02*
X149137518Y-107749276D01*
X156072771Y-112654308D02*
X156345280Y-113054849D01*
X157900600Y-115782400D02*
X159446427Y-119030101D01*
X157651561Y-115289283D02*
X157900600Y-115782400D01*
X152114461Y-108769423D02*
X152268254Y-108862506D01*
X147870234Y-107747195D02*
X148028573Y-107733555D01*
X151495540Y-108436378D02*
X151650798Y-108513742D01*
X151184070Y-108293458D02*
X151339958Y-108362950D01*
X148662301Y-107718710D02*
X148820743Y-107724929D01*
X148503847Y-107716462D02*
X148662301Y-107718710D01*
X155796832Y-112269253D02*
X156072771Y-112654308D01*
X157398266Y-114811554D02*
X157651561Y-115289283D01*
X151650798Y-108513742D02*
X151805716Y-108595039D01*
X149137518Y-107749276D02*
X149295817Y-107767399D01*
X152268254Y-108862506D02*
X152421637Y-108959515D01*
X139605806Y-114807758D02*
X139864021Y-114343815D01*
X145824374Y-108285205D02*
X145980486Y-108220071D01*
X144740598Y-108851733D02*
X144894341Y-108758960D01*
X143526656Y-109735759D02*
X143827241Y-109491129D01*
X145980486Y-108220071D02*
X146136869Y-108158890D01*
X144587261Y-108948448D02*
X144740598Y-108851733D01*
X134683445Y-122947001D02*
X134883067Y-122766913D01*
X145513031Y-108427328D02*
X145668550Y-108354291D01*
X145357834Y-108504315D02*
X145513031Y-108427328D01*
X136252073Y-121206977D02*
X136398872Y-120998953D01*
X144894341Y-108758960D02*
X145048472Y-108670132D01*
X132242106Y-124522267D02*
X132526828Y-124385071D01*
X144129849Y-109262241D02*
X144281870Y-109153704D01*
X135261646Y-122396052D02*
X135441158Y-122205529D01*
X140934503Y-112644131D02*
X141210861Y-112258283D01*
X136679310Y-120575589D02*
X136813505Y-120360499D01*
X134883067Y-122766913D02*
X135075708Y-122583221D01*
X133067269Y-124096253D02*
X133323542Y-123944879D01*
X134039913Y-123464399D02*
X134262146Y-123295869D01*
X131947344Y-124654487D02*
X132242106Y-124522267D01*
X132801790Y-124243025D02*
X133067269Y-124096253D01*
X140126132Y-113895470D02*
X140392005Y-113462735D01*
X136398872Y-120998953D02*
X136541191Y-120788449D01*
X145668550Y-108354291D02*
X145824374Y-108285205D01*
X142638378Y-110563999D02*
X142932091Y-110272204D01*
X134262146Y-123295869D02*
X134476564Y-123123361D01*
X141773123Y-111533548D02*
X142058760Y-111194681D01*
X137316612Y-119480327D02*
X137551852Y-119030101D01*
X143978301Y-109374717D02*
X144129849Y-109262241D01*
X143827241Y-109491129D02*
X143978301Y-109374717D01*
X143228228Y-109996121D02*
X143526656Y-109735759D01*
X131642266Y-124781607D02*
X131947344Y-124654487D01*
X136813505Y-120360499D02*
X137071237Y-119924125D01*
X142932091Y-110272204D02*
X143228228Y-109996121D01*
X137551852Y-119030101D02*
X139101600Y-115782400D01*
X135782020Y-121814921D02*
X135943925Y-121615086D01*
X137071237Y-119924125D02*
X137316612Y-119480327D01*
X131000046Y-125020047D02*
X131326593Y-124903502D01*
X141490445Y-111888086D02*
X141773123Y-111533548D01*
X141210861Y-112258283D02*
X141490445Y-111888086D01*
X140392005Y-113462735D02*
X140661507Y-113045618D01*
X133323542Y-123944879D02*
X133570889Y-123789029D01*
X139101600Y-115782400D02*
X139351621Y-115287290D01*
X133809586Y-123628828D02*
X134039913Y-123464399D01*
X134476564Y-123123361D02*
X134683445Y-122947001D01*
X139351621Y-115287290D02*
X139605806Y-114807758D01*
X146136869Y-108158890D02*
X146293508Y-108101664D01*
X142058760Y-111194681D02*
X142347223Y-110871494D01*
X133570889Y-123789029D02*
X133809586Y-123628828D01*
X135441158Y-122205529D02*
X135614524Y-122011777D01*
X145202975Y-108585250D02*
X145357834Y-108504315D01*
X145048472Y-108670132D02*
X145202975Y-108585250D01*
X132526828Y-124385071D02*
X132801790Y-124243025D01*
X135614524Y-122011777D02*
X135782020Y-121814921D01*
X140661507Y-113045618D02*
X140934503Y-112644131D01*
X135075708Y-122583221D02*
X135261646Y-122396052D01*
X144434346Y-109049106D02*
X144587261Y-108948448D01*
X144281870Y-109153704D02*
X144434346Y-109049106D01*
X142347223Y-110871494D02*
X142638378Y-110563999D01*
X136541191Y-120788449D02*
X136679310Y-120575589D01*
X135943925Y-121615086D02*
X136100516Y-121412396D01*
X131326593Y-124903502D02*
X131642266Y-124781607D01*
X136100516Y-121412396D02*
X136252073Y-121206977D01*
X139864021Y-114343815D02*
X140126132Y-113895470D01*
X75003870Y-94868075D02*
X75071879Y-94979030D01*
X74648693Y-94098637D02*
X74673190Y-94172665D01*
X74515379Y-93506815D02*
X74529854Y-93600166D01*
X75071879Y-94979030D02*
X75348941Y-95410897D01*
X126610922Y-125913275D02*
X127075417Y-125863812D01*
X74502612Y-93410181D02*
X74515379Y-93506815D01*
X75951100Y-97141577D02*
X75951100Y-109061900D01*
X75887602Y-96579930D02*
X75901936Y-96646152D01*
X75546821Y-95739487D02*
X75608021Y-95851864D01*
X74603445Y-93943348D02*
X74625422Y-94022242D01*
X74725585Y-94314138D02*
X74753346Y-94381845D01*
X127075417Y-125863812D02*
X127525981Y-125807626D01*
X124608074Y-126041410D02*
X125639027Y-125991535D01*
X92951100Y-126061900D02*
G75*
G02X75951100Y-109061900I0J17000000D01*
G01*
X75835117Y-96387155D02*
X75854126Y-96450474D01*
X74582831Y-93861824D02*
X74603445Y-93943348D01*
X74937462Y-94753925D02*
X75003870Y-94868075D01*
X75854126Y-96450474D02*
X75871643Y-96514718D01*
X75925456Y-96781797D02*
X75934508Y-96851306D01*
X74475237Y-93099268D02*
X74482472Y-93206538D01*
X75950029Y-97067089D02*
X75951100Y-97141577D01*
X75348941Y-95410897D02*
X75482882Y-95628760D01*
X74529854Y-93600166D02*
X74545966Y-93690364D01*
X123515838Y-126061900D02*
X124608074Y-126041410D01*
X75901936Y-96646152D02*
X75914576Y-96713427D01*
X92951100Y-126061900D02*
X123515838Y-126061900D01*
X75914576Y-96713427D02*
X75925456Y-96781797D01*
X74753346Y-94381845D02*
X74782057Y-94447708D01*
X75871643Y-96514718D02*
X75887602Y-96579930D01*
X74469985Y-92988190D02*
X74475237Y-93099268D01*
X74466783Y-92873176D02*
X74469985Y-92988190D01*
X75814684Y-96324718D02*
X75835117Y-96387155D01*
X75934508Y-96851306D02*
X75941666Y-96921996D01*
X75665946Y-95966235D02*
X75693511Y-96024274D01*
X74873205Y-94635534D02*
X74937462Y-94753925D01*
X75608021Y-95851864D02*
X75665946Y-95966235D01*
X74673190Y-94172665D02*
X74698844Y-94244454D01*
X74811650Y-94511856D02*
X74842055Y-94574421D01*
X74625422Y-94022242D02*
X74648693Y-94098637D01*
X130662349Y-125131117D02*
X131000046Y-125020047D01*
X130313223Y-125236588D02*
X130662349Y-125131117D01*
X125639027Y-125991535D02*
X126610922Y-125913275D01*
X74782057Y-94447708D02*
X74811650Y-94511856D01*
X129952390Y-125336336D02*
X130313223Y-125236588D01*
X129579572Y-125430234D02*
X129952390Y-125336336D01*
X129194492Y-125518159D02*
X129579572Y-125430234D01*
X128796870Y-125599985D02*
X129194492Y-125518159D01*
X128386430Y-125675588D02*
X128796870Y-125599985D01*
X74842055Y-94574421D02*
X74873205Y-94635534D01*
X127962893Y-125744844D02*
X128386430Y-125675588D01*
X75792894Y-96263121D02*
X75814684Y-96324718D01*
X74698844Y-94244454D02*
X74725585Y-94314138D01*
X74563648Y-93777540D02*
X74582831Y-93861824D01*
X127525981Y-125807626D02*
X127962893Y-125744844D01*
X75482882Y-95628760D02*
X75546821Y-95739487D01*
X75946862Y-96993909D02*
X75950029Y-97067089D01*
X75720056Y-96082940D02*
X75745513Y-96142275D01*
X75693511Y-96024274D02*
X75720056Y-96082940D01*
X74482472Y-93206538D02*
X74491620Y-93310132D01*
X75769815Y-96202321D02*
X75792894Y-96263121D01*
X75941666Y-96921996D02*
X75946862Y-96993909D01*
X75745513Y-96142275D02*
X75769815Y-96202321D01*
X74545966Y-93690364D02*
X74563648Y-93777540D01*
X74491620Y-93310132D02*
X74502612Y-93410181D01*
X221051100Y-109061900D02*
X221051100Y-97141577D01*
X222419369Y-93861824D02*
X222438552Y-93777540D01*
X142963109Y-86803600D02*
G75*
G02X144049294Y-88077390I0J-1100000D01*
G01*
X222519728Y-93206538D02*
X222526963Y-93099268D01*
X221455379Y-95739487D02*
X221519318Y-95628761D01*
X144017294Y-88277390D02*
G75*
G02X142931109Y-89203600I-1086185J173790D01*
G01*
X87601100Y-89203600D02*
G75*
G02X86501100Y-88103600I0J1100000D01*
G01*
X221076744Y-96781798D02*
X221087624Y-96713427D01*
X222472346Y-93600166D02*
X222486821Y-93506815D01*
X222220143Y-94447708D02*
X222248854Y-94381845D01*
X222499588Y-93410181D02*
X222510580Y-93310132D01*
X221148074Y-96450475D02*
X221167083Y-96387155D01*
X222303356Y-94244454D02*
X222329010Y-94172665D01*
X221930321Y-94979030D02*
X221998330Y-94868075D01*
X221519318Y-95628761D02*
X221653259Y-95410897D01*
X221308689Y-96024275D02*
X221336254Y-95966235D01*
X221209306Y-96263121D02*
X221232385Y-96202321D01*
X221187516Y-96324719D02*
X221209306Y-96263121D01*
X221130557Y-96514719D02*
X221148074Y-96450475D01*
X221051100Y-109061900D02*
G75*
G02X204051100Y-126061900I-17000000J0D01*
G01*
X221052171Y-97067089D02*
X221055338Y-96993909D01*
X74465700Y-92754092D02*
X74466783Y-92873176D01*
X222248854Y-94381845D02*
X222276615Y-94314138D01*
X222456234Y-93690364D02*
X222472346Y-93600166D01*
X222398755Y-93943348D02*
X222419369Y-93861824D01*
X221336254Y-95966235D02*
X221394179Y-95851865D01*
X220536500Y-82966000D02*
G75*
G02X222536500Y-84966000I0J-2000000D01*
G01*
X222329010Y-94172665D02*
X222353507Y-94098637D01*
X221114598Y-96579930D02*
X221130557Y-96514719D01*
X221067692Y-96851306D02*
X221076744Y-96781798D01*
X221060534Y-96921996D02*
X221067692Y-96851306D01*
X142963109Y-86803600D02*
X87601100Y-86803600D01*
X86501100Y-87903600D02*
X86501100Y-88103600D01*
X221055338Y-96993909D02*
X221060534Y-96921996D01*
X221051100Y-97141577D02*
X221052171Y-97067089D01*
X222128995Y-94635534D02*
X222160145Y-94574421D01*
X74465700Y-84966000D02*
X74465700Y-92754092D01*
X222535417Y-92873176D02*
X222536500Y-92754092D01*
X74465700Y-84966000D02*
G75*
G02X76465700Y-82966000I2000000J0D01*
G01*
X221232385Y-96202321D02*
X221256687Y-96142275D01*
X221087624Y-96713427D02*
X221100264Y-96646152D01*
X86501100Y-87903600D02*
G75*
G02X87601100Y-86803600I1100000J0D01*
G01*
X173111850Y-126061900D02*
X204051100Y-126061900D01*
X221282144Y-96082940D02*
X221308689Y-96024275D01*
X221394179Y-95851865D02*
X221455379Y-95739487D01*
X222510580Y-93310132D02*
X222519728Y-93206538D01*
X222376778Y-94022242D02*
X222398755Y-93943348D01*
X220536500Y-82966000D02*
X76465700Y-82966000D01*
X221256687Y-96142275D02*
X221282144Y-96082940D01*
X221998330Y-94868075D02*
X222064738Y-94753925D01*
X222438552Y-93777540D02*
X222456234Y-93690364D01*
X222536500Y-92754092D02*
X222536500Y-84966000D01*
X221167083Y-96387155D02*
X221187516Y-96324719D01*
X222064738Y-94753925D02*
X222128995Y-94635534D01*
X222353507Y-94098637D02*
X222376778Y-94022242D01*
X221653259Y-95410897D02*
X221930321Y-94979030D01*
X222532215Y-92988190D02*
X222535417Y-92873176D01*
X222526963Y-93099268D02*
X222532215Y-92988190D01*
X222276615Y-94314138D02*
X222303356Y-94244454D01*
X87601100Y-89203600D02*
X142931109Y-89203600D01*
X222160145Y-94574421D02*
X222190550Y-94511856D01*
X221100264Y-96646152D02*
X221114598Y-96579930D01*
X222190550Y-94511856D02*
X222220143Y-94447708D01*
X222486821Y-93506815D02*
X222499588Y-93410181D01*
X159583318Y-109456278D02*
G75*
G02X160562984Y-107856023I979666J500255D01*
G01*
X212056656Y-107856023D02*
X160562984Y-107856023D01*
X139126759Y-102592917D02*
G75*
G02X140106425Y-104193172I0J-1100000D01*
G01*
X84945545Y-99729812D02*
G75*
G02X83501100Y-98529812I-111881J1334671D01*
G01*
X162270862Y-114719384D02*
G75*
G02X163250528Y-113119129I979666J500255D01*
G01*
X209401100Y-92066706D02*
X154881188Y-92066706D01*
X155755284Y-99729812D02*
G75*
G02X154669100Y-98803601I1J1100000D01*
G01*
X212056656Y-97329812D02*
X155723285Y-97329812D01*
X134629210Y-114919384D02*
X134731338Y-114719384D01*
X153795003Y-93340495D02*
X153827003Y-93540495D01*
X156895775Y-104193172D02*
X156997903Y-104393172D01*
X154071091Y-89203600D02*
G75*
G02X152984906Y-88277390I0J1100000D01*
G01*
X139126759Y-102592917D02*
X84945544Y-102592917D01*
X209401100Y-86803600D02*
G75*
G02X210501100Y-87903600I0J-1100000D01*
G01*
X83501100Y-103792918D02*
G75*
G02X84945544Y-102592917I1332564J-134670D01*
G01*
X154913188Y-94466706D02*
X209401100Y-94466706D01*
X157977569Y-104992917D02*
X212056656Y-104992917D01*
X212056655Y-113119129D02*
G75*
G02X213501100Y-114319129I111881J-1334671D01*
G01*
X163352655Y-115519129D02*
X212056656Y-115519129D01*
X154071091Y-89203600D02*
X209401100Y-89203600D01*
X141278915Y-97329812D02*
X84945544Y-97329812D01*
X84945544Y-104992918D02*
G75*
G02X83501100Y-103792917I-111880J1334671D01*
G01*
X84945545Y-115519129D02*
G75*
G02X83501100Y-114319129I-111881J1334671D01*
G01*
X210501100Y-88103600D02*
X210501100Y-87903600D01*
X84945544Y-104992917D02*
X139024631Y-104992917D01*
X154913187Y-94466706D02*
G75*
G02X153827003Y-93540495I1J1100000D01*
G01*
X142333100Y-98803602D02*
G75*
G02X141246915Y-99729812I-1086185J173790D01*
G01*
X157977569Y-104992917D02*
G75*
G02X156997903Y-104393172I0J1100000D01*
G01*
X213501100Y-114319128D02*
G75*
G02X212056656Y-115519129I-1332564J134670D01*
G01*
X152952906Y-88077390D02*
G75*
G02X154039091Y-86803600I1086185J173790D01*
G01*
X152952906Y-88077390D02*
X152984906Y-88277390D01*
X209401100Y-92066706D02*
G75*
G02X210501100Y-93166706I0J-1100000D01*
G01*
X154637100Y-98603601D02*
X154669100Y-98803601D01*
X83501101Y-98529812D02*
G75*
G02X84945544Y-97329812I1332563J-134670D01*
G01*
X141278914Y-97329812D02*
G75*
G02X142365100Y-98603601I1J-1100000D01*
G01*
X83501100Y-114319130D02*
G75*
G02X84945544Y-113119129I1332564J-134670D01*
G01*
X140004297Y-104393172D02*
X140106425Y-104193172D01*
X154637100Y-98603602D02*
G75*
G02X155723285Y-97329812I1086185J173790D01*
G01*
X212056655Y-107856023D02*
G75*
G02X213501100Y-109056023I111881J-1334671D01*
G01*
X134629211Y-114919384D02*
G75*
G02X133649545Y-115519129I-979666J500255D01*
G01*
X153795003Y-93340496D02*
G75*
G02X154881188Y-92066706I1086185J173790D01*
G01*
X155755285Y-99729812D02*
X212056656Y-99729812D01*
X163352655Y-115519128D02*
G75*
G02X162372990Y-114919384I0J1099999D01*
G01*
X210501100Y-88103600D02*
G75*
G02X209401100Y-89203600I-1100000J0D01*
G01*
X84945544Y-99729812D02*
X141246915Y-99729812D01*
X210501100Y-93366706D02*
X210501100Y-93166706D01*
X140004297Y-104393172D02*
G75*
G02X139024631Y-104992917I-979666J500255D01*
G01*
X142333100Y-98803601D02*
X142365100Y-98603601D01*
X162270862Y-114719384D02*
X162372990Y-114919384D01*
X133751672Y-113119129D02*
G75*
G02X134731338Y-114719384I0J-1100000D01*
G01*
X212056656Y-102592917D02*
X157875441Y-102592917D01*
X210501100Y-93366706D02*
G75*
G02X209401100Y-94466706I-1100000J0D01*
G01*
X213501099Y-103792917D02*
G75*
G02X212056656Y-104992917I-1332563J134670D01*
G01*
X144017294Y-88277390D02*
X144049294Y-88077390D01*
X213501100Y-109056022D02*
G75*
G02X212056656Y-110256023I-1332564J134670D01*
G01*
X156895775Y-104193172D02*
G75*
G02X157875441Y-102592917I979666J500255D01*
G01*
X160665112Y-110256023D02*
X212056656Y-110256023D01*
X160665112Y-110256023D02*
G75*
G02X159685446Y-109656278I0J1100000D01*
G01*
X84945544Y-115519129D02*
X133649545Y-115519129D01*
X212056655Y-102592917D02*
G75*
G02X213501100Y-103792917I111881J-1334671D01*
G01*
X212056656Y-113119129D02*
X163250528Y-113119129D01*
X133751672Y-113119129D02*
X84945544Y-113119129D01*
X209401100Y-86803600D02*
X154039091Y-86803600D01*
X159583319Y-109456278D02*
X159685446Y-109656278D01*
X211049521Y-120216442D02*
G75*
G02X210087948Y-120782235I-961573J534207D01*
G01*
X213501100Y-98529811D02*
G75*
G02X212056656Y-99729812I-1332564J134670D01*
G01*
X137316754Y-109656278D02*
G75*
G02X136337088Y-110256023I-979666J500255D01*
G01*
X84945544Y-110256023D02*
X136337088Y-110256023D01*
X137316754Y-109656278D02*
X137418881Y-109456278D01*
X86914252Y-120782235D02*
G75*
G02X85952679Y-120216442I0J1100000D01*
G01*
X143175197Y-93540495D02*
X143207197Y-93340495D01*
X164958405Y-119982490D02*
X165060533Y-120182490D01*
X131941667Y-120182490D02*
X132043795Y-119982490D01*
X211049521Y-120216442D02*
X211160632Y-120016442D01*
X131941667Y-120182490D02*
G75*
G02X130962001Y-120782235I-979666J500255D01*
G01*
X85841568Y-120016442D02*
X85952679Y-120216442D01*
X136439216Y-107856024D02*
G75*
G02X137418881Y-109456278I0J-1099999D01*
G01*
X84945545Y-110256023D02*
G75*
G02X83501100Y-109056023I-111881J1334671D01*
G01*
X166040199Y-120782235D02*
G75*
G02X165060533Y-120182490I0J1100000D01*
G01*
X83501100Y-109056024D02*
G75*
G02X84945544Y-107856023I1332564J-134670D01*
G01*
X89001100Y-93166706D02*
G75*
G02X90101100Y-92066706I1100000J0D01*
G01*
X85841568Y-120016442D02*
G75*
G02X86803141Y-118382235I961573J534207D01*
G01*
X142121011Y-92066706D02*
G75*
G02X143207197Y-93340495I1J-1100000D01*
G01*
X166040199Y-120782235D02*
X210087948Y-120782235D01*
X131064129Y-118382235D02*
G75*
G02X132043795Y-119982490I0J-1100000D01*
G01*
X164958405Y-119982490D02*
G75*
G02X165938071Y-118382235I979666J500255D01*
G01*
X210199059Y-118382235D02*
X165938071Y-118382235D01*
X210199059Y-118382235D02*
G75*
G02X211160632Y-120016442I0J-1100000D01*
G01*
X86914252Y-120782235D02*
X130962001Y-120782235D01*
X136439216Y-107856023D02*
X84945544Y-107856023D01*
X90101100Y-94466706D02*
X142089012Y-94466706D01*
X89001100Y-93166706D02*
X89001100Y-93366706D01*
X142121012Y-92066706D02*
X90101100Y-92066706D01*
X143175197Y-93540496D02*
G75*
G02X142089012Y-94466706I-1086185J173790D01*
G01*
X131064129Y-118382235D02*
X86803141Y-118382235D01*
X90101100Y-94466706D02*
G75*
G02X89001100Y-93366706I0J1100000D01*
G01*
X212056656Y-97329811D02*
G75*
G02X213501100Y-98529812I111880J-1334671D01*
G01*
M02*
