M48
;DRILL file {KiCad (2017-09-07 revision 90668f9ef)-makepkg} date 11/26/17 16:45:17
;FORMAT={-:-/ absolute / metric / decimal}
FMAT,2
METRIC,TZ
T1C0.300
T2C0.500
T3C0.550
T4C0.991
T5C2.200
%
G90
G05
M71
T1
X77.2Y-95.9
X77.7Y-104.1
X78.1Y-89.6
X78.1Y-115.5
X78.2Y-88.
X78.2Y-110.2
X78.5Y-106.5
X78.89Y-113.3
X79.166Y-116.638
X79.277Y-108.899
X79.6Y-90.8
X80.112Y-109.488
X80.3Y-87.3
X80.7Y-113.2
X81.1Y-100.
X81.13Y-118.48
X81.2Y-95.3
X81.2Y-105.6
X81.3Y-85.4
X81.4Y-104.8
X82.1Y-99.9
X82.34Y-107.6
X82.6Y-95.3
X82.7Y-109.6
X82.7Y-117.5
X82.93Y-85.78
X83.1Y-111.67
X83.372Y-106.828
X83.38Y-100.605
X83.7Y-96.955
X83.8Y-118.4
X84.208Y-88.347
X84.3Y-119.5
X84.7Y-95.245
X84.8Y-84.6
X84.8Y-87.2
X85.13Y-85.78
X85.255Y-101.675
X85.265Y-105.94
X85.265Y-112.205
X85.265Y-116.47
X85.325Y-94.563
X85.73Y-88.58
X86.4Y-96.4
X86.43Y-90.48
X87.365Y-107.14
X87.365Y-117.67
X87.897Y-101.175
X87.897Y-106.44
X87.897Y-111.705
X87.897Y-116.97
X88.13Y-86.18
X88.2Y-95.2
X88.33Y-90.58
X88.4Y-96.
X88.5Y-122.5
X88.53Y-91.38
X88.565Y-100.41
X88.565Y-110.94
X88.7Y-89.78
X88.8Y-96.8
X88.83Y-121.48
X90.53Y-84.88
X90.53Y-91.145
X90.53Y-95.41
X90.53Y-101.675
X90.53Y-105.94
X90.53Y-112.205
X90.53Y-116.47
X90.53Y-122.735
X92.63Y-86.08
X92.63Y-96.61
X92.63Y-107.14
X92.63Y-117.67
X92.8Y-124.5
X93.162Y-85.38
X93.162Y-90.645
X93.162Y-95.91
X93.162Y-101.175
X93.162Y-106.44
X93.162Y-111.705
X93.162Y-116.97
X93.162Y-122.235
X93.83Y-89.88
X93.83Y-100.41
X93.83Y-110.94
X93.83Y-121.47
X95.795Y-84.88
X95.795Y-91.145
X95.795Y-95.41
X95.795Y-101.675
X95.795Y-105.94
X95.795Y-112.205
X95.795Y-116.47
X95.795Y-122.735
X97.895Y-86.08
X97.895Y-96.61
X97.895Y-107.14
X97.895Y-117.67
X98.427Y-85.38
X98.427Y-90.645
X98.427Y-95.91
X98.427Y-101.175
X98.427Y-106.44
X98.427Y-111.705
X98.427Y-116.97
X98.427Y-122.235
X99.095Y-89.88
X99.095Y-100.41
X99.095Y-110.94
X99.095Y-121.47
X101.06Y-84.88
X101.06Y-91.145
X101.06Y-95.41
X101.06Y-101.675
X101.06Y-105.94
X101.06Y-112.205
X101.06Y-116.47
X101.06Y-122.735
X103.16Y-86.08
X103.16Y-96.61
X103.16Y-107.14
X103.16Y-117.67
X103.692Y-85.38
X103.692Y-90.645
X103.692Y-95.91
X103.692Y-101.175
X103.692Y-106.44
X103.692Y-111.705
X103.692Y-116.97
X103.692Y-122.235
X104.36Y-89.88
X104.36Y-100.41
X104.36Y-110.94
X104.36Y-121.47
X106.325Y-84.88
X106.325Y-91.145
X106.325Y-95.41
X106.325Y-101.675
X106.325Y-105.94
X106.325Y-112.205
X106.325Y-116.47
X106.325Y-122.735
X108.425Y-86.08
X108.425Y-96.61
X108.425Y-107.14
X108.425Y-117.67
X108.957Y-85.38
X108.957Y-90.645
X108.957Y-95.91
X108.957Y-101.175
X108.957Y-106.44
X108.957Y-111.705
X108.957Y-116.97
X108.957Y-122.235
X109.625Y-89.88
X109.625Y-100.41
X109.625Y-110.94
X109.625Y-121.47
X111.59Y-84.88
X111.59Y-91.145
X111.59Y-95.41
X111.59Y-101.675
X111.59Y-105.94
X111.59Y-112.205
X111.59Y-116.47
X111.59Y-122.735
X113.69Y-86.08
X113.69Y-96.61
X113.69Y-107.14
X113.69Y-117.67
X114.222Y-85.38
X114.222Y-90.645
X114.222Y-95.91
X114.222Y-101.175
X114.222Y-106.44
X114.222Y-111.705
X114.222Y-116.97
X114.222Y-122.235
X114.89Y-89.88
X114.89Y-100.41
X114.89Y-110.94
X114.89Y-121.47
X116.855Y-84.88
X116.855Y-91.145
X116.855Y-95.41
X116.855Y-101.675
X116.855Y-105.94
X116.855Y-112.205
X116.855Y-116.47
X116.855Y-122.735
X118.955Y-86.08
X118.955Y-96.61
X118.955Y-107.14
X118.955Y-117.67
X119.487Y-85.38
X119.487Y-90.645
X119.487Y-95.91
X119.487Y-101.175
X119.487Y-106.44
X119.487Y-111.705
X119.487Y-116.97
X119.487Y-122.235
X120.155Y-89.88
X120.155Y-100.41
X120.155Y-110.94
X120.155Y-121.47
X122.12Y-84.88
X122.12Y-91.145
X122.12Y-95.41
X122.12Y-101.675
X122.12Y-105.94
X122.12Y-112.205
X122.12Y-116.47
X122.12Y-122.735
X124.22Y-86.08
X124.22Y-96.61
X124.22Y-107.14
X124.22Y-117.67
X124.752Y-85.38
X124.752Y-90.645
X124.752Y-95.91
X124.752Y-101.175
X124.752Y-106.44
X124.752Y-111.705
X124.752Y-116.97
X124.752Y-122.235
X125.42Y-89.88
X125.42Y-100.41
X125.42Y-110.94
X125.42Y-121.47
X127.385Y-84.88
X127.385Y-91.145
X127.385Y-95.41
X127.385Y-101.675
X127.385Y-105.94
X127.385Y-112.205
X127.385Y-116.47
X127.385Y-122.735
X129.485Y-86.08
X129.485Y-96.61
X129.485Y-107.14
X129.485Y-117.67
X130.017Y-85.38
X130.017Y-90.645
X130.017Y-95.91
X130.017Y-101.175
X130.017Y-106.44
X130.017Y-111.705
X130.017Y-116.97
X130.017Y-122.235
X130.685Y-89.88
X130.685Y-100.41
X130.685Y-110.94
X131.33Y-122.18
X131.53Y-122.98
X132.65Y-84.88
X132.65Y-91.145
X132.65Y-95.41
X132.65Y-101.675
X132.65Y-105.94
X132.65Y-112.205
X132.65Y-116.47
X134.75Y-86.08
X134.75Y-96.61
X134.75Y-107.14
X134.75Y-117.67
X135.282Y-85.38
X135.282Y-90.645
X135.282Y-95.91
X135.282Y-101.175
X135.282Y-106.44
X135.282Y-111.705
X135.95Y-89.88
X135.95Y-100.41
X136.33Y-115.18
X136.617Y-115.905
X137.915Y-84.88
X137.915Y-91.145
X137.915Y-95.41
X137.915Y-101.675
X137.915Y-105.94
X138.53Y-108.38
X140.015Y-86.08
X140.015Y-96.61
X140.547Y-85.38
X140.547Y-90.645
X140.547Y-95.91
X140.547Y-101.175
X141.215Y-89.88
X141.215Y-100.41
X143.18Y-84.88
X143.18Y-91.145
X143.18Y-95.41
X143.18Y-101.675
X145.28Y-86.08
X145.28Y-96.61
X145.812Y-85.38
X145.812Y-90.645
X145.812Y-95.91
X145.812Y-101.175
X146.48Y-89.88
X146.48Y-100.41
X148.445Y-84.88
X148.445Y-91.145
X148.445Y-95.41
X148.445Y-101.675
X150.545Y-86.08
X150.545Y-96.61
X151.077Y-85.38
X151.077Y-90.645
X151.077Y-95.91
X151.077Y-101.175
X151.745Y-89.88
X151.745Y-100.41
X153.71Y-84.88
X153.71Y-91.145
X153.71Y-95.41
X153.71Y-101.675
X155.81Y-86.08
X155.81Y-96.61
X156.343Y-85.38
X156.343Y-90.645
X156.343Y-95.91
X156.343Y-101.175
X157.01Y-89.88
X157.01Y-100.41
X157.33Y-107.18
X158.73Y-108.38
X158.975Y-84.88
X158.975Y-91.145
X158.975Y-95.41
X158.975Y-101.675
X158.975Y-105.94
X160.33Y-114.98
X161.075Y-86.08
X161.075Y-96.61
X161.13Y-115.18
X161.607Y-85.38
X161.607Y-90.645
X161.607Y-95.91
X161.607Y-101.175
X161.607Y-106.44
X161.607Y-116.97
X162.275Y-89.88
X162.275Y-100.41
X162.275Y-110.94
X162.73Y-121.58
X163.73Y-121.38
X164.24Y-84.88
X164.24Y-91.145
X164.24Y-95.41
X164.24Y-101.675
X164.24Y-105.94
X164.24Y-112.205
X164.24Y-116.47
X166.34Y-86.08
X166.34Y-96.61
X166.34Y-107.14
X166.34Y-117.67
X166.873Y-85.38
X166.873Y-90.645
X166.873Y-95.91
X166.873Y-101.175
X166.873Y-106.44
X166.873Y-111.705
X166.873Y-116.97
X167.54Y-89.88
X167.54Y-100.41
X167.54Y-110.94
X167.54Y-121.47
X169.505Y-84.88
X169.505Y-91.145
X169.505Y-95.41
X169.505Y-101.675
X169.505Y-105.94
X169.505Y-112.205
X169.505Y-116.47
X169.505Y-122.735
X171.605Y-86.08
X171.605Y-96.61
X171.605Y-107.14
X171.605Y-117.67
X172.137Y-85.38
X172.137Y-90.645
X172.137Y-95.91
X172.137Y-101.175
X172.137Y-106.44
X172.137Y-111.705
X172.137Y-116.97
X172.137Y-122.235
X172.805Y-89.88
X172.805Y-100.41
X172.805Y-110.94
X172.805Y-121.47
X174.77Y-84.88
X174.77Y-91.145
X174.77Y-95.41
X174.77Y-101.675
X174.77Y-105.94
X174.77Y-112.205
X174.77Y-116.47
X174.77Y-122.735
X176.87Y-86.08
X176.87Y-96.61
X176.87Y-107.14
X176.87Y-117.67
X177.403Y-85.38
X177.403Y-90.645
X177.403Y-95.91
X177.403Y-101.175
X177.403Y-106.44
X177.403Y-111.705
X177.403Y-116.97
X177.403Y-122.235
X178.07Y-89.88
X178.07Y-100.41
X178.07Y-110.94
X178.07Y-121.47
X180.035Y-84.88
X180.035Y-91.145
X180.035Y-95.41
X180.035Y-101.675
X180.035Y-105.94
X180.035Y-112.205
X180.035Y-116.47
X180.035Y-122.735
X182.135Y-86.08
X182.135Y-96.61
X182.135Y-107.14
X182.135Y-117.67
X182.667Y-85.38
X182.667Y-90.645
X182.667Y-95.91
X182.667Y-101.175
X182.667Y-106.44
X182.667Y-111.705
X182.667Y-116.97
X182.667Y-122.235
X183.335Y-89.88
X183.335Y-100.41
X183.335Y-110.94
X183.335Y-121.47
X185.3Y-84.88
X185.3Y-91.145
X185.3Y-95.41
X185.3Y-101.675
X185.3Y-105.94
X185.3Y-112.205
X185.3Y-116.47
X185.3Y-122.735
X187.4Y-86.08
X187.4Y-96.61
X187.4Y-107.14
X187.4Y-117.67
X187.933Y-85.38
X187.933Y-90.645
X187.933Y-95.91
X187.933Y-101.175
X187.933Y-106.44
X187.933Y-111.705
X187.933Y-116.97
X187.933Y-122.235
X188.6Y-89.88
X188.6Y-100.41
X188.6Y-110.94
X188.6Y-121.47
X190.565Y-84.88
X190.565Y-91.145
X190.565Y-95.41
X190.565Y-101.675
X190.565Y-105.94
X190.565Y-112.205
X190.565Y-116.47
X190.565Y-122.735
X192.665Y-86.08
X192.665Y-96.61
X192.665Y-107.14
X192.665Y-117.67
X193.197Y-85.38
X193.197Y-90.645
X193.197Y-95.91
X193.197Y-101.175
X193.197Y-106.44
X193.197Y-111.705
X193.197Y-116.97
X193.197Y-122.235
X193.865Y-89.88
X193.865Y-100.41
X193.865Y-110.94
X193.865Y-121.47
X195.83Y-84.88
X195.83Y-91.145
X195.83Y-95.41
X195.83Y-101.675
X195.83Y-105.94
X195.83Y-112.205
X195.83Y-116.47
X195.83Y-122.735
X197.93Y-86.08
X197.93Y-96.61
X197.93Y-107.14
X197.93Y-117.67
X198.462Y-85.38
X198.462Y-90.645
X198.462Y-95.91
X198.462Y-101.175
X198.462Y-106.44
X198.462Y-111.705
X198.462Y-116.97
X198.462Y-122.235
X199.13Y-89.88
X199.13Y-100.41
X199.13Y-110.94
X199.13Y-121.47
X201.095Y-84.88
X201.095Y-91.145
X201.095Y-95.41
X201.095Y-101.675
X201.095Y-105.94
X201.095Y-112.205
X201.095Y-116.47
X201.095Y-122.735
X203.195Y-86.08
X203.195Y-96.61
X203.195Y-107.14
X203.195Y-117.67
X203.727Y-85.38
X203.727Y-90.645
X203.727Y-95.91
X203.727Y-101.175
X203.727Y-106.44
X203.727Y-111.705
X203.727Y-116.97
X203.727Y-122.235
X204.395Y-89.88
X204.395Y-100.41
X204.395Y-110.94
X204.395Y-121.47
X206.33Y-84.88
X206.36Y-91.145
X206.36Y-95.41
X206.36Y-101.675
X206.36Y-105.94
X206.36Y-112.205
X206.36Y-116.47
X206.36Y-122.735
X208.13Y-86.18
X208.46Y-107.14
X208.46Y-117.67
X208.992Y-101.175
X208.992Y-106.44
X208.992Y-111.705
X208.992Y-116.97
X209.33Y-122.38
X209.66Y-100.41
X209.66Y-110.94
X211.33Y-96.58
X211.625Y-101.675
X211.625Y-105.94
X211.625Y-112.205
X211.625Y-116.47
X212.13Y-118.98
X212.53Y-90.38
X213.13Y-88.58
X213.93Y-107.63
X214.73Y-100.58
X215.165Y-97.98
X215.505Y-110.905
X215.57Y-107.98
T4
X77.26Y-97.384
X77.26Y-99.416
X82.34Y-98.4
T5
X77.53Y-85.38
X143.53Y-107.38
X153.53Y-107.38
X77.53Y-92.38
X219.53Y-85.38
X219.53Y-92.38
T2
X77.065Y-101.38G85X77.715Y-101.38
G05
X77.065Y-108.38G85X77.715Y-108.38
G05
T3
X80.09Y-102.23G85X80.09Y-102.53
G05
X80.09Y-107.23G85X80.09Y-107.53
G05
T0
M30
